<?xml version="1.0" encoding="UTF-8" standalone="no"?>
<!DOCTYPE svg PUBLIC "-//W3C//DTD SVG 1.1//EN"
"http://www.w3.org/Graphics/SVG/1.1/DTD/svg11.dtd">
<svg viewBox="0 0 935 1182" version="1.1" xmlns="http://www.w3.org/2000/svg" xmlns:xlink="http://www.w3.org/1999/xlink">
<defs>
<style type="text/css"><![CDATA[
.g0_41{
fill: none;
stroke: #231F20;
stroke-width: 1.145;
stroke-miterlimit: 10;
}
.g1_41{
fill: #F2F2F3;
}
.g2_41{
fill: #E7E8E8;
}
.g3_41{
fill: none;
stroke: #231F20;
stroke-width: 0.763;
stroke-miterlimit: 10;
}
]]></style>
</defs>
<path d="M148.2,68.7H678.3M148.2,94.3H678.3m-490.4,141H678.3m-490.4,24H678.3M187.9,326.9H678.3M187.9,351H678.3" class="g0_41"/>
<path d="M128.3,566.3H660V460H128.3V566.3Z" class="g1_41"/>
<path d="M187.9,586.3H678.3M187.9,610.4H678.3" class="g0_41"/>
<path d="M110.4,789h62.7v26H110.4V789Zm62.7,0h41.7v26H173.1V789Zm41.7,0h43.1v26H214.8V789Zm43.1,0h59.3v26H257.9V789Zm59.3,0H678v26H317.2V789Z" class="g2_41"/>
<path d="M173.1,814.6V789.3m41.7,25.3V789.3m43.1,25.3V789.3m59.3,25.3V789.3M110.4,871.1V815.3m62.7,55.8V815.3m41.7,55.8V815.3m43.1,55.8V815.3m59.3,55.8V815.3M678,871.1V815.3M110,871.5h63.1m-62.7,22.6V871.9m62.7,-.4h41.7m-41.7,22.6V871.9m41.7,-.4h43.1m-43.1,22.6V871.9m43.1,-.4h59.3m-59.3,22.6V871.9m59.3,-.4H678.3M317.2,894.1V871.9M678,894.1V871.9M110,894.5h63.1M110.4,917V894.8m62.7,-.3h41.7M173.1,917V894.8m41.7,-.3h43.1M214.8,917V894.8m43.1,-.3h59.3M257.9,917V894.8m59.3,-.3H678.3M317.2,917V894.8M678,917V894.8M110,917.4h63.1m0,0h41.7m0,0h43.1m0,0h59.3m0,0H678.3M110,789h63.1m-62.7,25.6V789.3m62.7,-.3h41.7m0,0h43.1m0,0h59.3m0,0H678.3m-.3,25.6V789.3M110,815h63.1m0,0h41.7m0,0h43.1m0,0h59.3m0,0H678.3" class="g3_41"/>
</svg>