<?xml version="1.0" encoding="UTF-8" standalone="no"?>
<!DOCTYPE svg PUBLIC "-//W3C//DTD SVG 1.1//EN"
"http://www.w3.org/Graphics/SVG/1.1/DTD/svg11.dtd">
<svg viewBox="0 0 935 1182" version="1.1" xmlns="http://www.w3.org/2000/svg" xmlns:xlink="http://www.w3.org/1999/xlink">
<defs>
<style type="text/css"><![CDATA[
.g0_309{
fill: none;
stroke: #231F20;
stroke-width: 1.527;
stroke-linecap: round;
stroke-linejoin: round;
stroke-dasharray: 0,4;
}
.g1_309{
fill: none;
stroke: #231F20;
stroke-width: 1.527;
stroke-linecap: round;
stroke-linejoin: round;
}
.g2_309{
fill: none;
stroke: #231F20;
stroke-width: 1.145;
stroke-miterlimit: 10;
}
.g3_309{
fill: #E7E8E8;
}
.g4_309{
fill: none;
stroke: #231F20;
stroke-width: 0.763;
stroke-miterlimit: 10;
}
]]></style>
</defs>
<path d="M149,244.6H639.4" class="g0_309"/>
<path d="M145.9,244.6v0m495,0v0" class="g1_309"/>
<path d="M148.2,267.7H678.3M148.2,293.3H678.3" class="g2_309"/>
<path d="M150.5,458.5H639.4" class="g0_309"/>
<path d="M147.4,458.5v0m493.5,0v0" class="g1_309"/>
<path d="M149,1048.8H639.4" class="g0_309"/>
<path d="M145.9,1048.8v0m495,0v0" class="g1_309"/>
<path d="M121.4,76.8H667v26H121.4v-26Z" class="g3_309"/>
<path d="M234.7,125.3V103.2m24.1,22.1V103.2m58.7,22.1V103.2m24.2,22.1V103.2m135,22.1V103.2m24.1,22.1V103.2M121,125.7H234.7m0,0h24.1m-24.1,22.6V126.1m24.1,-.4h58.7m-58.7,22.6V126.1m58.7,-.4h24.2m-24.2,22.6V126.1m24.2,-.4h135m-135,22.6V126.1m135,-.4h24.1m-24.1,22.6V126.1m24.1,-.4H667.3M500.8,148.3V126.1M121,148.7H234.7m0,0h24.1M234.7,188V149m24.1,-.3h58.7M258.8,188V149m58.7,-.3h24.2M317.5,188V149m24.2,-.3h135M341.7,188V149m135,-.3h24.1M476.7,188V149m24.1,-.3H667.3M500.8,188V149M121,188.4H234.7m0,0h24.1M234.7,211V188.8m24.1,-.4h58.7M258.8,211V188.8m58.7,-.4h24.2M317.5,211V188.8m24.2,-.4h135M341.7,211V188.8m135,-.4h24.1M476.7,211V188.8m24.1,-.4H667.3M500.8,211V188.8M121.4,125.3V103.2M667,125.3V103.2M121.4,148.3V126.1M667,148.3V126.1M121.4,188V149M667,188V149M121.4,211V188.8M667,211V188.8M121,211.4H234.7m0,0h24.1m0,0h58.7m0,0h24.2m0,0h135m0,0h24.1m0,0H667.3M121,76.8H234.7M121.4,102.4V77.2m113.3,-.4h24.1m0,0h58.7m0,0h24.2m0,0h135m0,0h24.1m0,0H667.3m-.3,25.6V77.2M121,102.8H234.7m0,0h24.1m0,0h58.7m0,0h24.2m0,0h135m0,0h24.1m0,0H667.3" class="g4_309"/>
<path d="M110.4,876.7H678v30.2H110.4V876.7Z" class="g3_309"/>
<path d="M260.3,929.5V907.3m24.2,22.2V907.3m58.7,22.2V907.3m24.2,22.2V907.3M495,929.5V907.3m24.1,22.2V907.3M110,929.9H260.3m0,0h24.2m-24.2,22.5V930.3m24.2,-.4h58.7m-58.7,22.5V930.3m58.7,-.4h24.2m-24.2,22.5V930.3m24.2,-.4H495M367.4,952.4V930.3M495,929.9h24.1M495,952.4V930.3m24.1,-.4H678.3M519.1,952.4V930.3M110,952.8H260.3m0,0h24.2m-24.2,39.4v-39m24.2,-.4h58.7m-58.7,39.4v-39m58.7,-.4h24.2m-24.2,39.4v-39m24.2,-.4H495M367.4,992.2v-39M495,952.8h24.1M495,992.2v-39m24.1,-.4H678.3M519.1,992.2v-39M110,992.6H260.3m0,0h24.2m-24.2,22.5V993m24.2,-.4h58.7m-58.7,22.5V993m58.7,-.4h24.2m-24.2,22.5V993m24.2,-.4H495m-127.6,22.5V993M495,992.6h24.1M495,1015.1V993m24.1,-.4H678.3m-159.2,22.5V993M110.4,929.5V907.3M678,929.5V907.3M110.4,952.4V930.3M678,952.4V930.3M110.4,992.2v-39m567.6,39v-39m-567.6,61.9V993M678,1015.1V993m-568,22.5H260.3m0,0h24.2m0,0h58.7m0,0h24.2m0,0H495m0,0h24.1m0,0H678.3M110,876.7H260.3M110.4,906.6V877.1m149.9,-.4h24.2m0,0h58.7m0,0h24.2m0,0H495m0,0h24.1m0,0H678.3m-.3,29.9V877.1M110,906.9H260.3m0,0h24.2m0,0h58.7m0,0h24.2m0,0H495m0,0h24.1m0,0H678.3" class="g4_309"/>
</svg>