<?xml version="1.0" encoding="UTF-8" standalone="no"?>
<!DOCTYPE svg PUBLIC "-//W3C//DTD SVG 1.1//EN"
"http://www.w3.org/Graphics/SVG/1.1/DTD/svg11.dtd">
<svg viewBox="0 0 935 1182" version="1.1" xmlns="http://www.w3.org/2000/svg" xmlns:xlink="http://www.w3.org/1999/xlink">
<defs>
<style type="text/css"><![CDATA[
.g0_1{
fill: none;
stroke: #4D4D4D;
stroke-width: 0.763;
stroke-miterlimit: 10;
}
.g1_1{
fill: #4D4D4D;
}
.g2_1{
fill: none;
stroke: #4D4D4D;
stroke-width: 0.763;
stroke-linecap: square;
stroke-miterlimit: 10;
}
]]></style>
</defs>
<path d="M481.8,334.4L457.4,319.8c-12.1,-7.2,-19.5,-20.2,-19.5,-34.3V257c25.8,-13.7,56.5,-14.2,82.7,-1.4l2.9,1.4v29.1c0,13.8,-7.1,26.5,-18.7,33.9l-23,14.4Z" class="g0_1"/>
<path d="M460.4,284.9c0,-.1,.1,-.1,.1,-.2c.5,-.5,1,-1,1.5,-1.6c.5,-.6,1,-1.2,1.5,-1.7c.4,-.4,.7,-.9,1.1,-1.3c.2,-.2,.5,-.5,.7,-.8c.7,-.7,1.3,-1.4,1.9,-2.1c.8,-.9,1.6,-1.8,2.4,-2.7c.7,-.8,1.5,-1.7,2.3,-2.5c.1,-.1,.3,-.2,.4,-.2c.5,0,1.1,0,1.6,0c1.1,0,2.3,0,3.4,0c.5,0,1,0,1.4,0c.1,0,.2,.1,.3,.1c-.1,0,-.1,.1,-.1,.2c-.6,.6,-1.2,1.3,-1.8,1.9c-.7,.8,-1.4,1.6,-2,2.4c-.7,.7,-1.3,1.4,-1.9,2.1c-.4,.4,-.7,.8,-1.1,1.2c-.5,.6,-1.1,1.2,-1.6,1.8c-.6,.6,-1.1,1.2,-1.7,1.9c-.2,.2,-.3,.4,-.5,.5c-.1,.1,-.1,.2,0,.3c.4,.6,.8,1.2,1.1,1.8c.5,.6,.9,1.2,1.3,1.9c.4,.5,.8,1.1,1.1,1.7c.6,.8,1.2,1.7,1.7,2.5c.4,.6,.9,1.3,1.3,1.9c0,.1,.1,.2,.2,.3q0,-.1,0,-.1c0,-4.5,0,-9.1,0,-13.6c0,-.2,0,-.4,.2,-.6c.8,-.8,1.5,-1.6,2.2,-2.4c.8,-.9,1.5,-1.8,2.3,-2.7c.6,-.6,1.2,-1.3,1.8,-1.9c.1,-.2,.2,-.3,.3,-.4c.2,-.1,.3,-.1,.4,0c.2,.5,.5,1,.7,1.5c.3,.6,.7,1.3,1,1.9c.3,.7,.6,1.3,1,1.9c.3,.6,.6,1.3,.9,1.9c.4,.6,.7,1.3,1,2c.4,.7,.8,1.5,1.2,2.2c.3,.6,.6,1.2,.9,1.8c.3,.6,.6,1.2,.9,1.8c.1,.2,.2,.4,.3,.6q.1,.1,.2,.2c.3,-.7,.7,-1.3,1,-1.9c.4,-.8,.7,-1.5,1.1,-2.2c.4,-.7,.8,-1.5,1.1,-2.3c.3,-.4,.5,-.8,.7,-1.2c.3,-.6,.6,-1.2,.9,-1.8c.2,-.4,.5,-.9,.7,-1.3c.3,-.5,.5,-1,.8,-1.5c.3,-.7,.7,-1.4,1,-2c.4,-.7,.7,-1.4,1.1,-2.1c.1,-.2,.2,-.3,.4,-.3c1.5,0,2.9,0,4.4,0c.6,0,1.2,0,1.8,0c.1,0,.2,.1,.2,.2c0,.1,0,.2,0,.2c0,9,0,18,0,27c0,.3,0,.6,0,.9c0,.2,-.1,.2,-.2,.2c-.3,0,-.5,0,-.7,0c-1.4,0,-2.8,0,-4.2,0q-.3,0,-.3,-.3c0,-.6,0,-1.1,0,-1.7c0,-5.5,0,-10.9,0,-16.3c0,-.5,0,-1,0,-1.5q0,-.1,-.1,-.1c0,0,-.1,.1,-.1,.1c-.3,.6,-.6,1.2,-.9,1.9c-.1,.2,-.2,.5,-.3,.7c-.2,.4,-.4,.9,-.6,1.3c-.2,.4,-.4,.7,-.6,1.1c-.2,.5,-.4,1,-.7,1.5c-.2,.4,-.4,.9,-.6,1.3c-.3,.6,-.6,1.2,-.8,1.8c-.2,.4,-.5,.9,-.7,1.3c-.2,.5,-.4,1,-.6,1.4c-.2,.5,-.4,.9,-.6,1.3c-.3,.4,-.5,.9,-.7,1.3c0,.2,-.1,.3,-.1,.4c-.1,.4,-.4,.5,-.8,.5c-1.2,0,-2.4,0,-3.6,0c-.1,0,-.2,-.1,-.3,-.2c-.2,-.6,-.5,-1.1,-.8,-1.7c-.3,-.6,-.6,-1.3,-.9,-1.9c-.2,-.5,-.4,-.9,-.7,-1.4c-.2,-.5,-.4,-1,-.6,-1.4c-.3,-.7,-.7,-1.3,-1,-2c-.2,-.6,-.5,-1.1,-.8,-1.7c-.2,-.5,-.5,-1,-.7,-1.5c-.2,-.5,-.5,-1,-.7,-1.5c-.4,-.9,-.8,-1.7,-1.2,-2.5c0,-.1,-.1,-.2,-.1,-.2v.4c0,.9,0,1.9,0,2.8c0,5.6,0,11.1,0,16.6c0,.2,-.1,.2,-.2,.2c-.3,0,-.6,0,-.9,0c-2.1,0,-4.2,0,-6.3,0c-.3,0,-.5,-.1,-.7,-.4c-.5,-.6,-.9,-1.3,-1.4,-2c-.6,-.8,-1.1,-1.6,-1.7,-2.4c-.4,-.6,-.8,-1.1,-1.2,-1.7c-.5,-.7,-1,-1.4,-1.5,-2.1c-.4,-.7,-.9,-1.3,-1.4,-2c-.2,-.4,-.5,-.7,-.7,-1.1c-.1,-.2,-.2,-.2,-.3,0c-.5,.5,-1,1.1,-1.4,1.6c-.4,.5,-.8,.9,-1.3,1.4c-.3,.4,-.6,.7,-1,1.1c-.1,.2,-.1,.3,-.1,.5c0,2.2,0,4.4,0,6.6q0,.5,-.5,.5c-1.6,0,-3.1,0,-4.7,0q-.3,0,-.3,-.3c0,-9.2,0,-18.5,0,-27.7c0,-.4,-.1,-.5,.5,-.5c1.1,0,2.1,0,3.2,0c.5,0,.9,0,1.4,0c.3,0,.4,.1,.4,.4c0,1.3,0,2.6,0,4c0,2.7,0,5.4,0,8.1Z" class="g1_1"/>
<path d="M544.6,262.7v4.2m-2.1,-2.1h4.2M510.3,225v4.2m-2.1,-2.1h4.2M486,202v9.3m-4.7,-4.6h9.3m35.7,110.2v7.3m-3.6,-3.7H530m-102.2,-17v4.8m-2.4,-2.4h4.8M413.9,265.3v4.2m-2.1,-2.1H416M449.1,225v4.2M447,227.1h4.2" class="g2_1"/>
</svg>