<?xml version="1.0" encoding="UTF-8" standalone="no"?>
<!DOCTYPE svg PUBLIC "-//W3C//DTD SVG 1.1//EN"
"http://www.w3.org/Graphics/SVG/1.1/DTD/svg11.dtd">
<svg viewBox="0 0 935 1182" version="1.1" xmlns="http://www.w3.org/2000/svg" xmlns:xlink="http://www.w3.org/1999/xlink">
<defs>
<style type="text/css"><![CDATA[
.g0_83{
fill: none;
stroke: #231F20;
stroke-width: 1.527;
stroke-linecap: round;
stroke-linejoin: round;
stroke-dasharray: 0,4;
}
.g1_83{
fill: none;
stroke: #231F20;
stroke-width: 1.527;
stroke-linecap: round;
stroke-linejoin: round;
}
.g2_83{
fill: none;
stroke: #231F20;
stroke-width: 1.145;
stroke-miterlimit: 10;
}
.g3_83{
fill: #E7E8E8;
}
.g4_83{
fill: #DCDDDE;
}
.g5_83{
fill: none;
stroke: #231F20;
stroke-width: 0.763;
stroke-miterlimit: 10;
}
.g6_83{
fill: none;
stroke: #231F20;
stroke-width: 1.527;
stroke-miterlimit: 10;
}
]]></style>
</defs>
<path d="M150.5,66.4H639.4" class="g0_83"/>
<path d="M147.4,66.4v0m493.5,0v0" class="g1_83"/>
<path d="M149,550.5H639.4" class="g0_83"/>
<path d="M145.9,550.5v0m495,0v0" class="g1_83"/>
<path d="M148.2,573.7H678.3M148.2,599.2H678.3M110,912.4H678.3" class="g2_83"/>
<path d="M154.9,235.6H261.7v26H154.9v-26Zm126.2,0H386.5v26H281.1v-26Zm127.5,0H512.2v26H408.6v-26Zm124.2,0H633.4v26H532.8v-26Z" class="g3_83"/>
<path d="M154.9,281.5h53.3v19.9H154.9V281.5Zm53.3,0h53.5v19.9H208.2V281.5Zm72.9,0h52.7v19.9H281.1V281.5Zm52.7,0h52.7v19.9H333.8V281.5Zm199,0h50.3v19.9H532.8V281.5Zm50.3,0h50.3v19.9H583.1V281.5ZM154.9,301.4h53.3v19.9H154.9V301.4Zm53.3,0h53.5v19.9H208.2V301.4Zm-53.3,19.9h53.3v19.9H154.9V321.3Zm53.3,0h53.5v19.9H208.2V321.3Zm-53.3,19.9h53.3v19.9H154.9V341.2Zm53.3,0h53.5v19.9H208.2V341.2Zm-53.3,19.9h53.3V381H154.9V361.1Zm53.3,0h53.5V381H208.2V361.1Z" class="g4_83"/>
<path d="M261.7,261.2V236m19.4,25.2V236m105.4,25.2V236m22.1,25.2V236m103.6,25.2V236m20.6,25.2V236M154.9,280.7V262m53.3,18.7V262m53.5,18.7V262m19.4,18.7V262m52.7,18.7V262m52.7,18.7V262m22.1,19.1V262m51.8,19.1V262m51.8,19.1V262m20.6,18.7V262m50.3,18.7V262m50.3,18.7V262M333.8,300.6V282.3m74.4,-.8h52.2M408.6,301V281.9m51.8,-.4h52.2M460.4,301V281.9M512.2,301V281.9m70.9,18.7V282.3M155.7,301.4h52.5m0,0H261m20.1,19.5V302.2m52.7,18.7V302.2m52.7,18.7V302.2m21.7,-.8h52.2m-51.8,19.5V301.8m51.8,-.4h52.2m-52.2,19.5V301.8m51.8,19.1V301.8m20.6,19.1V302.2m50.3,18.7V302.2m50.3,18.7V302.2M155.7,321.3h52.5m0,0H261m19.7,0h53.1m-52.7,19.5V321.7m52.7,-.4h53m-53,19.5V321.7m52.7,19.1V321.7m21.7,-.4h52.2m-51.8,19.5V321.7m51.8,-.4h52.2m-52.2,19.5V321.7m51.8,19.1V321.7m20.2,-.4h50.7m-50.3,19.5V321.7m50.3,-.4h50.7m-50.7,19.5V321.7m50.3,19.1V321.7M155.7,341.2h52.5m0,0H261m19.7,0h53.1m-52.7,19.5V341.6m52.7,-.4h53m-53,19.5V341.6m52.7,19.1V341.6m21.7,-.4h52.2m-51.8,19.5V341.6m51.8,-.4h52.2m-52.2,19.5V341.6m51.8,19.1V341.6m20.2,-.4h50.7m-50.3,19.5V341.6m50.3,-.4h50.7m-50.7,19.5V341.6m50.3,19.1V341.6M155.7,361.1h52.5m0,0H261m19.7,0h53.1m-52.7,19.5V361.5m52.7,-.4h53m-53,19.5V361.5m52.7,19.1V361.5m21.7,-.4h52.2m-51.8,19.5V361.5m51.8,-.4h52.2m-52.2,19.5V361.5m51.8,19.1V361.5m20.2,-.4h50.7m-50.3,19.5V361.5m50.3,-.4h50.7m-50.7,19.5V361.5m50.3,19.1V361.5M280.7,381h53.1m0,0h53m21.4,0h52.2m0,0h52.2m19.8,0h50.7m0,0h50.7M208.2,301V282.3m0,38.6V301.8m0,39V321.7m0,39V341.6m0,38.6V361.5" class="g5_83"/>
<path d="M154.2,281.5h54m-53.3,19.9V282.3m53.3,-.8h54.3m-.8,19.9V282.3m-106.8,39V301.4m106.8,19.9V301.4M154.9,341.2V321.3m106.8,19.9V321.3M154.9,361.1V341.2m106.8,19.9V341.2m-106.8,39V361.1m106.8,19.1V361.1M154.2,381h54m0,0h54.3m17.9,-99.5h53.4m-52.7,19.1V282.3m52.7,-.8h53.4m-.7,19.1V282.3M280.4,301.4h53.4m0,0h53.4M532,281.5h51.1m-50.3,19.1V282.3m50.3,-.8h51.1m-.8,19.1V282.3M532,301.4h51.1m0,0h51.1" class="g6_83"/>
<path d="M154.5,235.6h53.7m-53.3,25.6V236m53.3,-.4h53.9m18.6,0h53.1m0,0h53m21.4,0h52.2m0,0h52.2m19.8,0h50.7m0,0h50.7m-.4,25.6V236M154.5,261.6h53.7m0,0h53.9m18.6,0h53.1m0,0h53m21.4,0h52.2m0,0h52.2m19.8,0h50.7m0,0h50.7" class="g5_83"/>
</svg>