<?xml version="1.0" encoding="UTF-8" standalone="no"?>
<!DOCTYPE svg PUBLIC "-//W3C//DTD SVG 1.1//EN"
"http://www.w3.org/Graphics/SVG/1.1/DTD/svg11.dtd">
<svg viewBox="0 0 935 1182" version="1.1" xmlns="http://www.w3.org/2000/svg" xmlns:xlink="http://www.w3.org/1999/xlink">
<defs>
<style type="text/css"><![CDATA[
.g0_193{
fill: none;
stroke: #231F20;
stroke-width: 1.145;
stroke-miterlimit: 10;
}
.g1_193{
fill: none;
stroke: #231F20;
stroke-width: 1.527;
stroke-linecap: round;
stroke-linejoin: round;
stroke-dasharray: 0,4;
}
.g2_193{
fill: none;
stroke: #231F20;
stroke-width: 1.527;
stroke-linecap: round;
stroke-linejoin: round;
}
]]></style>
</defs>
<path d="M110,100.9H678.3M148.2,191.5H678.3M148.2,217.1H678.3M187.9,397.7H678.3M187.9,421.8H678.3" class="g0_193"/>
<path d="M150.5,492.3H639.4" class="g1_193"/>
<path d="M147.4,492.3v0m493.5,0v0" class="g2_193"/>
<path d="M149,571.7H639.4" class="g1_193"/>
<path d="M145.9,571.7v0m495,0v0" class="g2_193"/>
<path d="M150.5,666.4H639.4" class="g1_193"/>
<path d="M147.4,666.4v0m493.5,0v0" class="g2_193"/>
<path d="M149,784.1H639.4" class="g1_193"/>
<path d="M145.9,784.1v0m495,0v0" class="g2_193"/>
<path d="M150.5,878.8H639.4" class="g1_193"/>
<path d="M147.4,878.8v0m493.5,0v0" class="g2_193"/>
<path d="M149,958.2H639.4" class="g1_193"/>
<path d="M145.9,958.2v0m495,0v0" class="g2_193"/>
<path d="M187.9,976.7H678.3m-490.4,24.1H678.3" class="g0_193"/>
</svg>