<?xml version="1.0" encoding="UTF-8" standalone="no"?>
<!DOCTYPE svg PUBLIC "-//W3C//DTD SVG 1.1//EN"
"http://www.w3.org/Graphics/SVG/1.1/DTD/svg11.dtd">
<svg viewBox="0 0 935 1182" version="1.1" xmlns="http://www.w3.org/2000/svg" xmlns:xlink="http://www.w3.org/1999/xlink">
<defs>
<style type="text/css"><![CDATA[
.g0_54{
fill: #F2F2F3;
}
.g1_54{
fill: none;
stroke: #231F20;
stroke-width: 1.145;
stroke-miterlimit: 10;
}
.g2_54{
fill: #E7E8E8;
}
.g3_54{
fill: none;
stroke: #231F20;
stroke-width: 0.763;
stroke-miterlimit: 10;
}
]]></style>
</defs>
<path d="M275,101.6H806.7v-39H275v39Z" class="g0_54"/>
<path d="M275,141.3H806.7V97.8H275v43.5Z" class="g0_54"/>
<path d="M275,234.5H806.7V125.3H275V234.5Z" class="g0_54"/>
<path d="M275,269.7H806.7V226.1H275v43.6Z" class="g0_54"/>
<path d="M275,343H806.7V256.7H275V343Z" class="g0_54"/>
<path d="M275,416.3H806.7V334.6H275v81.7Z" class="g0_54"/>
<path d="M275,453H806.7V409.4H275V453Z" class="g0_54"/>
<path d="M275,527.7H806.7V440H275v87.7Z" class="g0_54"/>
<path d="M294.9,547.9H825M294.9,573.5H825M294.9,1005.7H825m-530.1,25.5H825" class="g1_54"/>
<path d="M261.2,657.3h61.9v59.6H261.2V657.3Zm61.9,0h63.3v59.6H323.1V657.3Zm63.3,0h68.7v59.6H386.4V657.3Zm68.7,0H539v59.6H455.1V657.3Zm83.9,0h73.8v59.6H539V657.3Zm73.8,0H687v59.6H612.8V657.3Zm74.2,0h67.9v59.6H687V657.3Zm67.9,0h65.6v59.6H754.9V657.3Z" class="g2_54"/>
<path d="M323.1,716.5V657.7m63.3,58.8V657.7m68.7,58.8V657.7M539,716.5V657.7m73.8,58.8V657.7M687,716.5V657.7m67.9,58.8V657.7M323.1,739.5V717.3m63.3,22.2V717.3m68.7,22.2V717.3M539,739.5V717.3m73.8,22.2V717.3M687,739.5V717.3m67.9,22.2V717.3m65.6,22.2V717.3M260.8,739.9h62.3m0,0h63.3m-63.3,22.5V740.2m63.3,-.3h68.7m-68.7,22.5V740.2m68.7,-.3H539m-83.9,22.5V740.2m83.9,-.3h73.8M539,762.4V740.2m73.8,-.3H687m-74.2,22.5V740.2m74.2,-.3h67.9M687,762.4V740.2m67.9,-.3h66m-66,22.5V740.2m65.6,22.2V740.2M260.8,762.8h62.3m0,0h63.3m-63.3,22.6V763.2m63.3,-.4h68.7m-68.7,22.6V763.2m68.7,-.4H539m-83.9,22.6V763.2m83.9,-.4h73.8M539,785.4V763.2m73.8,-.4H687m-74.2,22.6V763.2m74.2,-.4h67.9M687,785.4V763.2m67.9,-.4h66m-66,22.6V763.2m65.6,22.2V763.2M260.8,785.8h62.3m0,0h63.3m-63.3,22.5V786.1m63.3,-.3h68.7m-68.7,22.5V786.1m68.7,-.3H539m-83.9,22.5V786.1m83.9,-.3h73.8M539,808.3V786.1m73.8,-.3H687m-74.2,22.5V786.1m74.2,-.3h67.9M687,808.3V786.1m67.9,-.3h66m-66,22.5V786.1m65.6,22.2V786.1M260.8,808.7h62.3m0,0h63.3m-63.3,22.6V809.1m63.3,-.4h68.7m-68.7,22.6V809.1m68.7,-.4H539m-83.9,22.6V809.1m83.9,-.4h73.8M539,831.3V809.1m73.8,-.4H687m-74.2,22.6V809.1m74.2,-.4h67.9M687,831.3V809.1m67.9,-.4h66m-66,22.6V809.1m65.6,22.2V809.1M260.8,831.6h62.3m0,0h63.3m-63.3,22.6V832m63.3,-.4h68.7m-68.7,22.6V832m68.7,-.4H539m-83.9,22.6V832m83.9,-.4h73.8M539,854.2V832m73.8,-.4H687m-74.2,22.6V832m74.2,-.4h67.9M687,854.2V832m67.9,-.4h66m-66,22.6V832m65.6,22.2V832M455.1,854.6H539m73.8,0H687m0,0h67.9m0,0h66M455.1,716.9H539m73.8,0H687m0,0h67.9m0,0h66M260.8,657.3h62.3m-61.9,59.2V657.7m61.9,-.4h63.3m0,0h68.7m0,0H539m0,0h73.8m0,0H687m0,0h67.9m0,0h66m-.4,59.2V657.7M260.8,716.9h62.3m-61.9,22.6V717.3m61.9,-.4h63.3m0,0h68.7m83.9,0h73.8M261.2,762.4V740.2m0,45.2V763.2m0,45.1V786.1m0,45.2V809.1m0,45.1V832m-.4,22.6h62.3m0,0h63.3m0,0h68.7m83.9,0h73.8" class="g3_54"/>
</svg>