<?xml version="1.0" encoding="UTF-8" standalone="no"?>
<!DOCTYPE svg PUBLIC "-//W3C//DTD SVG 1.1//EN"
"http://www.w3.org/Graphics/SVG/1.1/DTD/svg11.dtd">
<svg viewBox="0 0 935 1182" version="1.1" xmlns="http://www.w3.org/2000/svg" xmlns:xlink="http://www.w3.org/1999/xlink">
<defs>
<style type="text/css"><![CDATA[
.g0_182{
fill: none;
stroke: #231F20;
stroke-width: 1.145;
stroke-miterlimit: 10;
}
.g1_182{
fill: #F2F2F3;
}
.g2_182{
fill: none;
stroke: #231F20;
stroke-width: 0.763;
stroke-miterlimit: 10;
}
]]></style>
</defs>
<path d="M294.9,68.7H825M294.9,94.3H825" class="g0_182"/>
<path d="M275,566.4H806.7V482.5H275v83.9Z" class="g1_182"/>
<path d="M275,784H806.7V637H275V784Z" class="g1_182"/>
<path d="M334.6,802.6H825m-490.4,24H825" class="g0_182"/>
<path d="M399,191.6V166.3m-54.6,48.2V192.3M399,214.5V192.3m338.3,22.2V192.3M344,214.9h55m-54.6,22.5V215.3m54.6,-.4H737.7M399,237.4V215.3m338.3,22.1V215.3M344,237.8h55m-54.6,22.6V238.2m54.6,-.4H737.7M399,260.4V238.2m338.3,22.2V238.2M344,260.8h55m-54.6,22.5V261.2m54.6,-.4H737.7M399,283.3V261.2m338.3,22.1V261.2M344,283.7h55m-54.6,22.6V284.1m54.6,-.4H737.7M399,306.3V284.1m338.3,22.2V284.1M344,306.7h55m-54.6,22.5V307.1m54.6,-.4H737.7M399,329.2V307.1m338.3,22.1V307.1M344,329.6h55m-54.6,22.6V330m54.6,-.4H737.7M399,352.2V330m338.3,22.2V330M344,352.6h55m-54.6,22.5V352.9m54.6,-.3H737.7M399,375.1V352.9m338.3,22.2V352.9M344,375.5h55m-54.6,22.6V375.9m54.6,-.4H737.7M399,398.1V375.9m338.3,22.2V375.9M344,398.5h55M344.4,421V398.8m54.6,-.3H737.7M399,421V398.8M737.3,421V398.8M344,421.4h55M344.4,444V421.8m54.6,-.4H737.7M399,444V421.8M737.3,444V421.8M344,444.4h55m0,0H737.7M344,165.9h55m-54.6,25.7V166.3m54.6,-.4H737.7m-.4,25.7V166.3M344,191.9h55m0,0H737.7" class="g2_182"/>
</svg>