<?xml version="1.0" encoding="UTF-8" standalone="no"?>
<!DOCTYPE svg PUBLIC "-//W3C//DTD SVG 1.1//EN"
"http://www.w3.org/Graphics/SVG/1.1/DTD/svg11.dtd">
<svg viewBox="0 0 935 1182" version="1.1" xmlns="http://www.w3.org/2000/svg" xmlns:xlink="http://www.w3.org/1999/xlink">
<defs>
<style type="text/css"><![CDATA[
.g0_300{
fill: #F2F2F3;
}
.g1_300{
fill: none;
stroke: #231F20;
stroke-width: 1.145;
stroke-miterlimit: 10;
}
.g2_300{
fill: #E7E8E8;
}
.g3_300{
fill: none;
stroke: #231F20;
stroke-width: 0.763;
stroke-miterlimit: 10;
}
]]></style>
</defs>
<path d="M275,405.8H806.7V277H275V405.8Z" class="g0_300"/>
<path d="M256.7,460.5H825" class="g1_300"/>
<path d="M257,73.7H358.3v59.6H257V73.7Zm101.3,0h34.5v59.6H358.3V73.7Zm34.5,0h98.4v59.6H392.8V73.7Zm98.4,0h34.5v59.6H491.2V73.7Zm34.5,0h67.9v59.6H525.7V73.7Zm67.9,0h96.9v59.6H593.6V73.7Zm96.9,0h32v59.6h-32V73.7Zm32,0H824.6v59.6H722.5V73.7Z" class="g2_300"/>
<path d="M358.3,132.9V74.1m34.5,58.8V74.1m98.4,58.8V74.1m34.5,58.8V74.1m67.9,58.8V74.1m96.9,58.8V74.1m32,58.8V74.1M358.3,181.9V133.7m34.5,48.2V133.7m98.4,48.2V133.7m34.5,48.2V133.7m67.9,48.2V133.7m96.9,48.2V133.7m32,48.2V133.7M358.3,238.4V182.6m34.5,55.8V182.6m98.4,55.8V182.6m34.5,55.8V182.6m67.9,55.8V182.6m96.9,55.8V182.6m32,55.8V182.6m-465.8,-.4H358.3m0,0h34.5m0,0h98.4m0,0h34.5m0,0h67.9m0,0h96.9m0,0h32m0,0H825m-568,-.3V133.7m567.6,48.2V133.7M257,238.4V182.6m567.6,55.8V182.6M256.7,238.8H358.3m0,0h34.5m0,0h98.4m0,0h34.5m0,0h67.9m0,0h96.9m0,0h32m0,0H825M256.7,73.7H358.3M257,132.9V74.1m101.3,-.4h34.5m0,0h98.4m0,0h34.5m0,0h67.9m0,0h96.9m0,0h32m0,0H825m-.4,59.2V74.1M256.7,133.3H358.3m0,0h34.5m0,0h98.4m0,0h34.5m0,0h67.9m0,0h96.9m0,0h32m0,0H825" class="g3_300"/>
<path d="M257,697.1H404.9v42.8H257V697.1Zm147.9,0h81.3v42.8H404.9V697.1Zm81.3,0H605.4v42.8H486.2V697.1Zm119.2,0H673v42.8H605.4V697.1Zm67.6,0h77.9v42.8H673V697.1Zm77.9,0h72.2v42.8H750.9V697.1Z" class="g2_300"/>
<path d="M404.9,739.6V697.5m81.3,42.1V697.5m119.2,42.1V697.5M673,739.6V697.5m77.9,42.1V697.5m-346,81.8v-39m81.3,39v-39m119.2,39v-39m67.6,39v-39m77.9,39v-39M256.7,779.7H404.9m0,0h81.3m-81.3,39.4v-39m81.3,-.4H605.4M486.2,819.1v-39m119.2,-.4H673m-67.6,39.4v-39m67.6,-.4h77.9M673,819.1v-39m77.9,-.4h72.6m-72.6,39.4v-39M256.7,819.5H404.9m0,0h81.3m-81.3,39.3v-39m81.3,-.3H605.4M486.2,858.8v-39m119.2,-.3H673m-67.6,39.3v-39m67.6,-.3h77.9M673,858.8v-39m77.9,-.3h72.6m-72.6,39.3v-39M256.7,859.2H404.9m0,0h81.3m-81.3,22.6V859.6m81.3,-.4H605.4M486.2,881.8V859.6m119.2,-.4H673m-67.6,22.6V859.6m67.6,-.4h77.9M673,881.8V859.6m77.9,-.4h72.6m-72.6,22.6V859.6M256.7,882.2H404.9m0,0h81.3m-81.3,22.5V882.5m81.3,-.3H605.4M486.2,904.7V882.5m119.2,-.3H673m-67.6,22.5V882.5m67.6,-.3h77.9M673,904.7V882.5m77.9,-.3h72.6m-72.6,22.5V882.5M256.7,905.1H404.9m0,0h81.3m-81.3,39.4v-39m81.3,-.4H605.4M486.2,944.5v-39m119.2,-.4H673m-67.6,39.4v-39m67.6,-.4h77.9M673,944.5v-39m77.9,-.4h72.6m-72.6,39.4v-39M256.7,944.9H404.9m0,0h81.3m-81.3,115.7V945.2m81.3,-.3H605.4M486.2,1060.6V945.2m119.2,-.3H673m-67.6,115.7V945.2m67.6,-.3h77.9M673,1060.6V945.2m77.9,-.3h72.6m-72.6,115.7V945.2M257,779.3v-39m566.1,39v-39M257,819.1v-39m566.1,39v-39M257,858.8v-39m566.1,39v-39M257,881.8V859.6m566.1,22.2V859.6M257,904.7V882.5m566.1,22.2V882.5M257,944.5v-39m566.1,39v-39M257,1060.6V945.2m566.1,115.4V945.2M256.7,1061H404.9m0,0h81.3m0,0H605.4m0,0H673m0,0h77.9m0,0h72.6M256.7,697.1H404.9M257,739.6V697.5m147.9,-.4h81.3m0,0H605.4m0,0H673m0,0h77.9m0,0h72.6m-.4,42.5V697.5M256.7,739.9H404.9m0,0h81.3m0,0H605.4m0,0H673m0,0h77.9m0,0h72.6" class="g3_300"/>
</svg>