<?xml version="1.0" encoding="UTF-8" standalone="no"?>
<!DOCTYPE svg PUBLIC "-//W3C//DTD SVG 1.1//EN"
"http://www.w3.org/Graphics/SVG/1.1/DTD/svg11.dtd">
<svg viewBox="0 0 935 1182" version="1.1" xmlns="http://www.w3.org/2000/svg" xmlns:xlink="http://www.w3.org/1999/xlink">
<defs>
<style type="text/css"><![CDATA[
.g0_196{
fill: none;
stroke: #231F20;
stroke-width: 1.145;
stroke-miterlimit: 10;
}
.g1_196{
fill: #F2F2F3;
}
.g2_196{
fill: #E7E8E8;
}
.g3_196{
fill: none;
stroke: #231F20;
stroke-width: 0.763;
stroke-miterlimit: 10;
}
]]></style>
</defs>
<path d="M294.9,402.3H825M294.9,427.9H825" class="g0_196"/>
<path d="M275,800.9H806.7v-102H275v102Z" class="g1_196"/>
<path d="M334.6,819.5H825M334.6,843.6H825" class="g0_196"/>
<path d="M266.2,73.7H447.3v26H266.2v-26Zm181.1,0h176v26h-176v-26Zm176,0H815.5v26H623.3v-26Z" class="g2_196"/>
<path d="M447.3,99.3V74.1m176,25.2V74.1M266.2,122.3V100.1m549.3,22.2V100.1M265.8,122.7H447.3M266.2,160.9V123m181.1,-.3h176m-176,37.8V123m176,-.3H815.8M623.3,160.5V123m192.2,37.5V123M266.2,199.1V160.9m180.7,0H623.3m-176,37.8V161.3m176,-.4H815.8M623.3,198.7V161.3m192.2,37.4V161.3M266.2,221.7V199.1m180.7,0H623.3m-176,22.6V199.5m176,-.4H815.8M623.3,221.7V199.5m192.2,22.2V199.5M265.8,222.1H447.3M266.2,245V222.4m181.1,-.3h176m-176,22.5V222.4m176,-.3H815.8M623.3,244.6V222.4m192.2,22.2V222.4M266.2,267.6V245m180.7,0H623.3m-176,22.6V245.4m176,-.4H815.8M623.3,267.6V245.4m192.2,22.2V245.4M265.8,268H447.3M266.2,290.5V268.3M447.3,268h176m0,0H815.8m-.3,22.5V268.3M265.8,290.9H447.3M266.2,329.1V291.3m181.1,-.4h176m-176,37.8V291.3m176,-.4H815.8M623.3,328.7V291.3m192.2,37.4V291.3M266.2,367V329.1m180.7,0H623.3M447.3,367V329.5m176,-.4H815.8M623.3,367V329.5M815.5,367V329.5M265.8,367.4H447.3m0,0h176m0,0H815.8M265.8,73.7H447.3M266.2,99.3V74.1m181.1,-.4h176m0,0H815.8m-.3,25.6V74.1M265.8,99.7H447.3m0,0h176m0,0H815.8" class="g3_196"/>
</svg>