<?xml version="1.0" encoding="UTF-8" standalone="no"?>
<!DOCTYPE svg PUBLIC "-//W3C//DTD SVG 1.1//EN"
"http://www.w3.org/Graphics/SVG/1.1/DTD/svg11.dtd">
<svg viewBox="0 0 935 1182" version="1.1" xmlns="http://www.w3.org/2000/svg" xmlns:xlink="http://www.w3.org/1999/xlink">
<defs>
<style type="text/css"><![CDATA[
.g0_138{
fill: none;
stroke: #231F20;
stroke-width: 1.145;
stroke-miterlimit: 10;
}
.g1_138{
fill: #F2F2F3;
}
.g2_138{
fill: #E7E8E8;
}
.g3_138{
fill: #DCDDDE;
}
.g4_138{
fill: none;
stroke: #231F20;
stroke-width: 0.763;
stroke-miterlimit: 10;
}
.g5_138{
fill: none;
stroke: #231F20;
stroke-width: 3.055;
stroke-miterlimit: 10;
}
]]></style>
</defs>
<path d="M294.9,68.7H825M294.9,94.3H825" class="g0_138"/>
<path d="M275,658.4H806.7V597H275v61.4Z" class="g1_138"/>
<path d="M294.9,683H825M294.9,708.6H825" class="g0_138"/>
<path d="M340.2,144.5h73.5v42.9H340.2V144.5Zm73.5,0h55.1v42.9H413.7V144.5Zm55.1,0h72v42.9h-72V144.5Zm72,0h72.1v42.9H540.8V144.5Zm72.1,0h55v42.9h-55V144.5Zm55,0h73.5v42.9H667.9V144.5Z" class="g2_138"/>
<path d="M340.2,187.4h73.5v22.9H340.2V187.4Zm73.5,0h55.1v22.9H413.7V187.4Zm55.1,0h72v22.9h-72V187.4Zm72,0h72.1v22.9H540.8V187.4Zm72.1,0h55v22.9h-55V187.4Zm55,0h73.5v22.9H667.9V187.4ZM340.2,210.3h73.5v22.9H340.2V210.3Zm73.5,0h55.1v22.9H413.7V210.3Zm55.1,0h72v22.9h-72V210.3Zm72,0h72.1v22.9H540.8V210.3Zm72.1,0h55v22.9h-55V210.3Zm55,0h73.5v22.9H667.9V210.3ZM340.2,233.2h73.5v23H340.2v-23Zm73.5,0h55.1v23H413.7v-23Zm55.1,0h72v23h-72v-23Zm72,45.9h72.1v23H540.8v-23Zm72.1,0h55v23h-55v-23Zm55,0h73.5v23H667.9v-23Zm-327.7,23h73.5V325H340.2V302.1Zm73.5,0h55.1V325H413.7V302.1Zm55.1,0h72V325h-72V302.1Zm72,0h72.1V325H540.8V302.1Zm72.1,0h55V325h-55V302.1Zm55,0h73.5V325H667.9V302.1ZM340.2,325h73.5v23H340.2V325Zm73.5,0h55.1v23H413.7V325Zm55.1,0h72v23h-72V325Z" class="g3_138"/>
<path d="M413.7,187V144.9M468.8,187V144.9M612.9,187V144.9m55,42.1V144.9m-327.7,65V187.7m73.5,22.2V187.7m55.1,22.2V187.7m144.1,22.2V187.7m55,22.2V187.7m73.5,22.2V187.7M339.9,210.3h73.8m-73.5,22.6V210.7m73.5,-.4h55.1m-55.1,22.6V210.7m55.1,-.4h70.5m-70.5,22.6V210.7m73.6,-.4h70.5m0,0h55m-55,22.6V210.7m55,-.4h73.9m-73.9,22.6V210.7m73.5,22.2V210.7M339.9,233.2h73.8m-73.5,22.6V233.6m73.5,-.4h55.1m-55.1,22.6V233.6m55.1,-.4h70.5m-70.5,22.6V233.6m73.6,-.4h70.5m0,0h55m-55,22.6V233.6m55,-.4h73.9m-73.9,22.6V233.6m73.5,22.2V233.6M339.9,256.2h73.8m-73.5,22.6V256.6m73.5,-.4h55.1m-55.1,22.6V256.6m55.1,-.4h70.5m-70.5,22.6V256.6m73.6,-.4h70.5m0,0h55m-55,22.6V256.6m55,-.4h73.9m-73.9,22.6V256.6m73.5,22.2V256.6M339.9,279.1h73.8m-73.5,22.6V279.5m73.5,-.4h55.1m-55.1,22.6V279.5m55.1,-.4h70.5m-70.5,22.6V279.5m73.6,-.4h70.5m0,0h55m-55,22.6V279.5m55,-.4h73.9m-73.9,22.6V279.5m73.5,22.2V279.5M339.9,302.1h73.8m-73.5,22.6V302.5m73.5,-.4h55.1m-55.1,22.6V302.5m55.1,-.4h70.5m-70.5,22.6V302.5m73.6,-.4h70.5m0,0h55m-55,22.6V302.5m55,-.4h73.9m-73.9,22.6V302.5m73.5,22.2V302.5M339.9,325h73.8m-73.5,22.6V325.4m73.5,-.4h55.1m-55.1,22.6V325.4m55.1,-.4h70.5m-70.5,22.6V325.4m73.6,-.4h70.5m0,0h55m-55,22.6V325.4m55,-.4h73.9m-73.9,22.6V325.4m73.5,22.2V325.4M339.9,348h73.8m0,0h55.1m0,0h72m0,0h72.1m0,0h55m0,0h73.9" class="g4_138"/>
<path d="M540.8,187V144.9m0,65.4V187.7m0,45.5V210.3m0,45.9v-23m0,45.9V256.2m0,45.9v-23m0,45.9V302.1m0,45.5V325" class="g5_138"/>
<path d="M339.9,144.5h73.8M340.2,187V144.9m73.5,-.4h55.1m0,0h72m0,0h72.1m0,0h55m0,0h73.9m-.4,42.5V144.9M339.9,187.4h73.8m0,0h55.1m0,0h72m0,0h72.1m0,0h55m0,0h73.9" class="g4_138"/>
<path d="M340.2,865.7h73.5v42.9H340.2V865.7Zm73.5,0h55.1v42.9H413.7V865.7Zm55.1,0h72v42.9h-72V865.7Zm72,0h72.1v42.9H540.8V865.7Zm72.1,0h55v42.9h-55V865.7Zm55,0h73.5v42.9H667.9V865.7Z" class="g2_138"/>
<path d="M340.2,908.6h73.5v22.9H340.2V908.6Zm73.5,0h55.1v22.9H413.7V908.6Zm55.1,0h72v22.9h-72V908.6Zm72,0h72.1v22.9H540.8V908.6Zm72.1,0h55v22.9h-55V908.6Zm55,0h73.5v22.9H667.9V908.6ZM340.2,931.5h73.5v22.9H340.2V931.5Zm73.5,0h55.1v22.9H413.7V931.5Zm55.1,0h72v22.9h-72V931.5Zm72,0h72.1v22.9H540.8V931.5Zm72.1,0h55v22.9h-55V931.5Zm55,0h73.5v22.9H667.9V931.5ZM340.2,954.4h73.5v23H340.2v-23Zm73.5,0h55.1v23H413.7v-23Zm55.1,0h72v23h-72v-23Zm72,45.9h72.1v23H540.8v-23Zm72.1,0h55v23h-55v-23Zm55,0h73.5v23H667.9v-23Zm-327.7,23h73.5v22.9H340.2v-22.9Zm73.5,0h55.1v22.9H413.7v-22.9Zm55.1,0h72v22.9h-72v-22.9Zm72,0h72.1v22.9H540.8v-22.9Zm72.1,0h55v22.9h-55v-22.9Zm55,0h73.5v22.9H667.9v-22.9Zm-327.7,22.9h73.5v23H340.2v-23Zm73.5,0h55.1v23H413.7v-23Zm55.1,0h72v23h-72v-23Z" class="g3_138"/>
<path d="M413.7,908.2V866.1m55.1,42.1V866.1m144.1,42.1V866.1m55,42.1V866.1m-327.7,65V908.9m73.5,22.2V908.9m55.1,22.2V908.9m144.1,22.2V908.9m55,22.2V908.9m73.5,22.2V908.9M339.9,931.5h73.8m-73.5,22.6V931.9m73.5,-.4h55.1m-55.1,22.6V931.9m55.1,-.4h70.5m-70.5,22.6V931.9m73.6,-.4h70.5m0,0h55m-55,22.6V931.9m55,-.4h73.9m-73.9,22.6V931.9m73.5,22.2V931.9M339.9,954.4h73.8M340.2,977V954.8m73.5,-.4h55.1M413.7,977V954.8m55.1,-.4h70.5M468.8,977V954.8m73.6,-.4h70.5m0,0h55m-55,22.6V954.8m55,-.4h73.9M667.9,977V954.8M741.4,977V954.8M339.9,977.4h73.8M340.2,1000V977.8m73.5,-.4h55.1M413.7,1000V977.8m55.1,-.4h70.5M468.8,1000V977.8m73.6,-.4h70.5m0,0h55m-55,22.6V977.8m55,-.4h73.9M667.9,1000V977.8m73.5,22.2V977.8m-401.5,22.5h73.8m-73.5,22.6v-22.2m73.5,-.4h55.1m-55.1,22.6v-22.2m55.1,-.4h70.5m-70.5,22.6v-22.2m73.6,-.4h70.5m0,0h55m-55,22.6v-22.2m55,-.4h73.9m-73.9,22.6v-22.2m73.5,22.2v-22.2m-401.5,22.6h73.8m-73.5,22.6v-22.2m73.5,-.4h55.1m-55.1,22.6v-22.2m55.1,-.4h70.5m-70.5,22.6v-22.2m73.6,-.4h70.5m0,0h55m-55,22.6v-22.2m55,-.4h73.9m-73.9,22.6v-22.2m73.5,22.2v-22.2m-401.5,22.5h73.8m-73.5,22.6v-22.2m73.5,-.4h55.1m-55.1,22.6v-22.2m55.1,-.4h70.5m-70.5,22.6v-22.2m73.6,-.4h70.5m0,0h55m-55,22.6v-22.2m55,-.4h73.9m-73.9,22.6v-22.2m73.5,22.2v-22.2m-401.5,22.6h73.8m0,0h55.1m0,0h72m0,0h72.1m0,0h55m0,0h73.9" class="g4_138"/>
<path d="M540.8,908.2V866.1m0,65.4V908.9m0,45.5V931.5m0,45.9v-23m0,45.9V977.4m0,45.9v-23m0,45.9v-22.9m0,45.5v-22.6" class="g5_138"/>
<path d="M339.9,865.7h73.8m-73.5,42.5V866.1m73.5,-.4h55.1m0,0h72m0,0h72.1m0,0h55m0,0h73.9m-.4,42.5V866.1M339.9,908.6h73.8m0,0h55.1m0,0h72m0,0h72.1m0,0h55m0,0h73.9" class="g4_138"/>
</svg>