<?xml version="1.0" encoding="UTF-8" standalone="no"?>
<!DOCTYPE svg PUBLIC "-//W3C//DTD SVG 1.1//EN"
"http://www.w3.org/Graphics/SVG/1.1/DTD/svg11.dtd">
<svg viewBox="0 0 935 1182" version="1.1" xmlns="http://www.w3.org/2000/svg" xmlns:xlink="http://www.w3.org/1999/xlink">
<defs>
<clipPath id="c0_296"><path d="M328.8,298.3v-.9h11.6v.9Z"/></clipPath>
<clipPath id="c1_296"><path d="M328.8,212.2v-.9h11.6v.9Z"/></clipPath>
<clipPath id="c2_296"><path d="M253.8,573.4V153.5h574V573.4Z"/></clipPath>
<style type="text/css"><![CDATA[
.g0_296{
fill: none;
stroke: #231F20;
stroke-width: 0.899;
stroke-miterlimit: 10;
}
.g1_296{
fill: none;
stroke: #BFC1C3;
stroke-width: 0.899;
stroke-miterlimit: 10;
}
.g2_296{
fill: none;
stroke: #040503;
stroke-width: 1.349;
stroke-linecap: round;
stroke-miterlimit: 10;
}
.g3_296{
fill: none;
stroke: #231F20;
stroke-width: 1.799;
stroke-linecap: round;
stroke-miterlimit: 10;
}
.g4_296{
fill: none;
stroke: #231F20;
stroke-width: 0.675;
stroke-miterlimit: 10;
}
.g5_296{
fill: none;
stroke: #A5A7A9;
stroke-width: 0.675;
stroke-miterlimit: 10;
}
.g6_296{
fill: #A5A7A9;
}
.g7_296{
fill: none;
stroke: #A5A7A9;
stroke-width: 0.899;
stroke-miterlimit: 10;
}
.g8_296{
fill: none;
stroke: #A5A7A9;
stroke-width: 0.899;
stroke-miterlimit: 10;
stroke-dasharray: 2,2;
}
.g9_296{
fill: #FFF;
}
.ga_296{
fill: #E7E8E8;
}
.gb_296{
fill: none;
stroke: #231F20;
stroke-width: 0.763;
stroke-miterlimit: 10;
}
]]></style>
</defs>
<path d="M253.8,573.4h574V153.5h-574V573.4Z" class="g9_296"/>
<g clip-path="url(#c2_296)">
<path d="M328.8,254.8H791.3M328.8,469.9V211.7" class="g1_296"/>
<g clip-path="url(#c2_296)" opacity="0">
<path clip-path="url(#c0_296)" d="M328.8,297.8h11.6" class="g0_296"/>
</g>
<path d="M328.8,254.8h11.6" class="g1_296"/>
<g clip-path="url(#c2_296)" opacity="0">
<path clip-path="url(#c1_296)" d="M328.8,211.7h11.6" class="g0_296"/>
</g>
<path d="M421.3,377.2l-92.5,86m185,-172.1l-92.5,86.1M552.8,254.8l-39,36.3m64.7,-60.3l-25.7,24m51.4,0l-25.7,-24m27.8,25.9l-2.1,-1.9m48.3,44.9l-46.2,-43" class="g2_296"/>
<path d="M698.8,342.7l-46.3,-43M745,385.8L698.8,342.7" class="g3_296"/>
<path d="M824.9,570.5H256.7V156.8H824.9Z" class="g4_296"/>
<path d="M554,261v31" class="g5_296"/>
<path d="M554,256.9c-.7,2,-1.9,4.3,-3.2,5.8l3.2,-1.2l3.2,1.2c-1.3,-1.5,-2.5,-3.8,-3.2,-5.8Z" class="g6_296"/>
<path d="M578.9,205.3v.9" class="g7_296"/>
<path d="M578.9,207.9v20.2" class="g8_296"/>
<path d="M578.9,228.9v.9" class="g7_296"/>
<path d="M603.5,261v31" class="g5_296"/>
<path d="M603.5,256.9c-.7,2,-2,4.3,-3.2,5.8l3.2,-1.2l3.2,1.2c-1.3,-1.5,-2.5,-3.8,-3.2,-5.8Z" class="g6_296"/>
</g>
<path d="M312.3,599.1H769.4v26H312.3v-26Z" class="ga_296"/>
<path d="M418.7,647.6V625.5M311.9,648H418.7m0,0H769.8M418.7,670.6V648.4M311.9,671H418.7m0,0H769.8M418.7,693.5V671.4M311.9,693.9H418.7m0,0H769.8M418.7,742.5V694.3M311.9,742.8H418.7m0,0H769.8M418.7,791.4V743.2M311.9,791.8H418.7m0,0H769.8M418.7,857.1v-65M311.9,857.5H418.7m0,0H769.8M418.7,880V857.9M311.9,880.4H418.7m0,0H769.8M418.7,903V880.8M312.3,647.6V625.5m457.1,22.1V625.5M312.3,670.6V648.4m457.1,22.2V648.4M312.3,693.5V671.4m457.1,22.1V671.4M312.3,742.5V694.3m457.1,48.2V694.3M312.3,791.4V743.2m457.1,48.2V743.2M312.3,857.1v-65m457.1,65v-65M312.3,880V857.9M769.4,880V857.9M312.3,903V880.8M769.4,903V880.8M311.9,903.4H418.7m0,0H769.8M311.9,599.1H418.7M312.3,624.7V599.5m106.4,-.4H769.8m-.4,25.6V599.5M311.9,625.1H418.7m0,0H769.8" class="gb_296"/>
</svg>