<?xml version="1.0" encoding="UTF-8" standalone="no"?>
<!DOCTYPE svg PUBLIC "-//W3C//DTD SVG 1.1//EN"
"http://www.w3.org/Graphics/SVG/1.1/DTD/svg11.dtd">
<svg viewBox="0 0 935 1182" version="1.1" xmlns="http://www.w3.org/2000/svg" xmlns:xlink="http://www.w3.org/1999/xlink">
<defs>
<style type="text/css"><![CDATA[
.g0_50{
fill: none;
stroke: #231F20;
stroke-width: 1.145;
stroke-miterlimit: 10;
}
.g1_50{
fill: #E7E8E8;
}
.g2_50{
fill: none;
stroke: #231F20;
stroke-width: 0.763;
stroke-miterlimit: 10;
}
]]></style>
</defs>
<path d="M294.9,408.9H825M294.9,434.5H825" class="g0_50"/>
<path d="M288.6,665H793v26H288.6V665Z" class="g1_50"/>
<path d="M288.6,730.4v-39m86,39v-39m418.4,39v-39M288.3,730.8h86.3m-86,56.2V731.2m86,-.4H793.4M374.6,787V731.2M793,787V731.2M288.3,787.4h86.3m-86,22.5V787.7m86,-.3H793.4M374.6,809.9V787.7M793,809.9V787.7M288.3,810.3h86.3m0,0H793.4M288.3,665h86.3m-86,25.7V665.4m86,-.4H793.4m-.4,25.7V665.4M288.3,691h86.3m0,0H793.4" class="g2_50"/>
</svg>