<?xml version="1.0" encoding="UTF-8" standalone="no"?>
<!DOCTYPE svg PUBLIC "-//W3C//DTD SVG 1.1//EN"
"http://www.w3.org/Graphics/SVG/1.1/DTD/svg11.dtd">
<svg viewBox="0 0 935 1182" version="1.1" xmlns="http://www.w3.org/2000/svg" xmlns:xlink="http://www.w3.org/1999/xlink">
<defs>
<style type="text/css"><![CDATA[
.g0_197{
fill: none;
stroke: #231F20;
stroke-width: 1.145;
stroke-miterlimit: 10;
}
.g1_197{
fill: #E7E8E8;
}
.g2_197{
fill: none;
stroke: #231F20;
stroke-width: 0.763;
stroke-miterlimit: 10;
}
]]></style>
</defs>
<path d="M110,100.9H678.3M148.2,338.1H678.3M148.2,363.7H678.3M148.2,745.6H678.3M148.2,771.2H678.3M148.2,953.4H678.3M148.2,979H678.3" class="g0_197"/>
<path d="M110.4,435.3H262.2v42.8H110.4V435.3Zm151.8,0H418v42.8H262.2V435.3Zm155.8,0H609.5v42.8H418V435.3Zm191.5,0H678v42.8H609.5V435.3Z" class="g1_197"/>
<path d="M262.2,477.8V435.7M418,477.8V435.7m191.5,42.1V435.7M110.4,501.1V478.5m151.8,22.6V478.5M418,500.7V478.5m191.5,22.2V478.5M678,500.7V478.5M110.4,523.7V501.1m151.8,22.6V501.1m155.4,0H609.5M418,523.7V501.5m191.5,-.4h68.8m-68.8,22.6V501.5M678,523.7V501.5M110,524H262.2M110.4,547V524.4M262.2,524H418M262.2,547V524.4M418,524H609.5M418,546.6V524.4M609.5,524h68.8m-68.8,22.6V524.4M678,546.6V524.4M110.4,569.6V547m151.8,22.6V547m155.4,0H609.5M418,569.6V547.4M609.5,547h68.8m-68.8,22.6V547.4M678,569.6V547.4M110,569.9H262.2m-151.8,23V570.3m151.8,-.4H418m-155.8,23V570.3M418,569.9H609.5M418,592.5V570.3m191.5,-.4h68.8m-68.8,22.6V570.3M678,592.5V570.3M110.4,615.4V592.9m151.8,22.5V592.9m155.4,0H609.5M418,615.4V593.3m191.5,-.4h68.8m-68.8,22.5V593.3M678,615.4V593.3M110,615.8H262.2m-151.8,23V616.2m151.8,-.4H418m-155.8,23V616.2M418,615.8H609.5M418,638.4V616.2m191.5,-.4h68.8m-68.8,22.6V616.2M678,638.4V616.2M110.4,661.3V638.8m151.8,22.5V638.8m155.4,0H609.5M418,661.3V639.2m191.5,-.4h68.8m-68.8,22.5V639.2M678,661.3V639.2M110,661.7H262.2m-151.8,23V662.1m151.8,-.4H418m-155.8,23V662.1M418,661.7H609.5M418,684.3V662.1m191.5,-.4h68.8m-68.8,22.6V662.1M678,684.3V662.1M110.4,710.3V684.7m151.8,25.6V684.7m155.4,0H609.5M418,710.3V685.1m191.5,-.4h68.8m-68.8,25.6V685.1M678,710.3V685.1M110,710.6H262.2m0,0H418m0,0H609.5m0,0h68.8M110,435.3H262.2M110.4,477.8V435.7m151.8,-.4H418m0,0H609.5m0,0h68.8m-.3,42.5V435.7M110,478.1H262.2m0,0H418m0,0H609.5m0,0h68.8" class="g2_197"/>
</svg>