<?xml version="1.0" encoding="UTF-8" standalone="no"?>
<!DOCTYPE svg PUBLIC "-//W3C//DTD SVG 1.1//EN"
"http://www.w3.org/Graphics/SVG/1.1/DTD/svg11.dtd">
<svg viewBox="0 0 935 1182" version="1.1" xmlns="http://www.w3.org/2000/svg" xmlns:xlink="http://www.w3.org/1999/xlink">
<defs>
<style type="text/css"><![CDATA[
.g0_78{
fill: none;
stroke: #231F20;
stroke-width: 1.527;
stroke-linecap: round;
stroke-linejoin: round;
stroke-dasharray: 0,4;
}
.g1_78{
fill: none;
stroke: #231F20;
stroke-width: 1.527;
stroke-linecap: round;
stroke-linejoin: round;
}
.g2_78{
fill: #F2F2F3;
}
.g3_78{
fill: none;
stroke: #231F20;
stroke-width: 1.145;
stroke-miterlimit: 10;
}
]]></style>
</defs>
<path d="M297.2,257.5H786" class="g0_78"/>
<path d="M294.1,257.5v0m493.5,0v0" class="g1_78"/>
<path d="M295.6,392H786" class="g0_78"/>
<path d="M292.6,392v0m495,0v0" class="g1_78"/>
<path d="M275,565.2H806.7V503.8H275v61.4Z" class="g2_78"/>
<path d="M297.2,640.1H786" class="g0_78"/>
<path d="M294.1,640.1v0m493.5,0v0" class="g1_78"/>
<path d="M295.6,738.6H786" class="g0_78"/>
<path d="M292.6,738.6v0m495,0v0" class="g1_78"/>
<path d="M297.2,833.3H786" class="g0_78"/>
<path d="M294.1,833.3v0m493.5,0v0" class="g1_78"/>
<path d="M295.6,931.9H786" class="g0_78"/>
<path d="M292.6,931.9v0m495,0v0" class="g1_78"/>
<path d="M294.9,955H825M294.9,980.6H825" class="g3_78"/>
</svg>