<?xml version="1.0" encoding="UTF-8" standalone="no"?>
<!DOCTYPE svg PUBLIC "-//W3C//DTD SVG 1.1//EN"
"http://www.w3.org/Graphics/SVG/1.1/DTD/svg11.dtd">
<svg viewBox="0 0 935 1182" version="1.1" xmlns="http://www.w3.org/2000/svg" xmlns:xlink="http://www.w3.org/1999/xlink">
<defs>
<style type="text/css"><![CDATA[
.g0_287{
fill: none;
stroke: #231F20;
stroke-width: 1.527;
stroke-linecap: round;
stroke-linejoin: round;
stroke-dasharray: 0,4;
}
.g1_287{
fill: none;
stroke: #231F20;
stroke-width: 1.527;
stroke-linecap: round;
stroke-linejoin: round;
}
.g2_287{
fill: #E7E8E8;
}
.g3_287{
fill: none;
stroke: #231F20;
stroke-width: 0.763;
stroke-miterlimit: 10;
}
]]></style>
</defs>
<path d="M150.5,66.4H639.4" class="g0_287"/>
<path d="M147.4,66.4v0m493.5,0v0" class="g1_287"/>
<path d="M149,382.1H639.4" class="g0_287"/>
<path d="M145.9,382.1v0m495,0v0" class="g1_287"/>
<path d="M150.5,403.5H639.4" class="g0_287"/>
<path d="M147.4,403.5v0m493.5,0v0" class="g1_287"/>
<path d="M149,1100.4H639.4" class="g0_287"/>
<path d="M145.9,1100.4v0m495,0v0" class="g1_287"/>
<path d="M110.4,147h60.1v42.8H110.4V147Zm60.1,0H288.4v42.8H170.5V147Zm117.9,0h75.7v42.8H288.4V147Zm75.7,0H599.5v42.8H364.1V147Zm235.4,0h78.8v42.8H599.5V147Z" class="g2_287"/>
<path d="M170.5,189.4v-42m117.9,42v-42m75.7,42v-42m235.4,42v-42m-429,81.8v-39m117.9,39v-39m75.7,39v-39m235.4,39v-39M110,229.6h60.5m0,0H288.4M170.5,268.9v-39m117.9,-.3h75.7m-75.7,39.3v-39m75.7,-.3H599.5M364.1,268.9v-39m235.4,-.3h79.1m-79.1,39.3v-39m0,39.4h79.1m-79.1,39.8h79.1M110.4,229.2v-39m567.9,39v-39M110.4,268.9v-39m567.9,39v-39m0,78.8v-39M110.4,348.4V309.5m567.9,38.9V309.5M110,348.8h60.5m0,0H288.4m0,0h75.7m0,0H599.5m0,0h79.1M110,147h60.5m-60.1,42.4v-42m60.1,-.4H288.4m0,0h75.7m0,0H599.5m0,0h79.1m-.3,42.4v-42M110,189.8h60.5m0,0H288.4m0,0h75.7m0,0H599.5m0,0h79.1M110,269.3h60.5m-60.1,39.4v-39m60.1,-.4H288.4m0,0h75.7m0,0H599.5m0,39.4v-39M110,309.1h60.5m0,0H288.4m0,0h75.7m0,0H599.5" class="g3_287"/>
<path d="M110.4,464.9h52.8v42.9H110.4V464.9Zm52.8,0H269.5v42.9H163.2V464.9Zm106.3,0H341v42.9H269.5V464.9Zm71.5,0H568.3v42.9H341V464.9Zm227.3,0H681.6v42.9H568.3V464.9Z" class="g2_287"/>
<path d="M163.2,507.4V465.3m106.3,42.1V465.3M341,507.4V465.3m227.3,42.1V465.3M163.2,547.1v-39m106.3,39v-39m71.5,39v-39m227.3,39v-39M110,547.5h53.2m0,0H269.5M163.2,586.9v-39m106.3,-.4H341m-71.5,39.4v-39m71.5,-.4H568.3M341,586.9v-39m227.3,-.4H682M568.3,586.9v-39m0,39.4H682M568.3,627H682M110.4,547.1v-39m571.2,39v-39M110.4,586.9v-39m571.2,39v-39m0,78.7v-39M110.4,666.4v-39m571.2,39v-39M110,666.8h53.2m0,0H269.5m0,0H341m0,0H568.3m0,0H682M110,464.9h53.2m-52.8,42.5V465.3m52.8,-.4H269.5m0,0H341m0,0H568.3m0,0H682m-.4,42.5V465.3M110,507.8h53.2m0,0H269.5m0,0H341m0,0H568.3m0,0H682M110,587.3h53.2m-52.8,39.3v-39m52.8,-.3H269.5m0,0H341m0,0H568.3m0,39.3v-39M110,627h53.2m0,0H269.5m0,0H341m0,0H568.3" class="g3_287"/>
<path d="M110.4,813.4H165v68.8H110.4V813.4Zm54.6,0H302.3v68.8H165V813.4Zm137.3,0h73.8v68.8H302.3V813.4Zm73.8,0H678v68.8H376.1V813.4Z" class="g2_287"/>
<path d="M165,881.8v-68m137.3,68v-68m73.8,68v-68M165,904.8V882.6m137.3,22.2V882.6m73.8,22.2V882.6M110,905.2h55m0,0H302.3M165,961.3V905.5m137.3,-.3h73.8m-73.8,56.1V905.5m73.8,-.3H678.3M376.1,961.3V905.5M110,961.7h55m0,0H302.3M165,1027.1v-65m137.3,-.4h73.8m0,0H678.3m-302.2,65.4v-65M110,1027.4h55m0,0H302.3M165,1066.8v-39m137.3,-.4h73.8m0,0H678.3M110.4,904.8V882.6M678,904.8V882.6M110.4,961.3V905.5M678,961.3V905.5M110.4,1027.1v-65m567.6,65v-65M110.4,1066.8v-39m567.6,39v-39m-568,39.4h55m0,0H302.3m0,0h73.8m0,0H678.3M110,813.4h55m-54.6,68.4v-68m54.6,-.4H302.3m0,0h73.8m0,0H678.3m-.3,68.4v-68M110,882.2h55m0,0H302.3m0,0h73.8m0,0H678.3" class="g3_287"/>
</svg>