<?xml version="1.0" encoding="UTF-8" standalone="no"?>
<!DOCTYPE svg PUBLIC "-//W3C//DTD SVG 1.1//EN"
"http://www.w3.org/Graphics/SVG/1.1/DTD/svg11.dtd">
<svg viewBox="0 0 935 1182" version="1.1" xmlns="http://www.w3.org/2000/svg" xmlns:xlink="http://www.w3.org/1999/xlink">
<defs>
<style type="text/css"><![CDATA[
.g0_68{
fill: none;
stroke: #231F20;
stroke-width: 1.145;
stroke-miterlimit: 10;
}
.g1_68{
fill: none;
stroke: #231F20;
stroke-width: 1.527;
stroke-linecap: round;
stroke-linejoin: round;
stroke-dasharray: 0,4;
}
.g2_68{
fill: none;
stroke: #231F20;
stroke-width: 1.527;
stroke-linecap: round;
stroke-linejoin: round;
}
.g3_68{
fill: #E7E8E8;
}
.g4_68{
fill: none;
stroke: #231F20;
stroke-width: 0.763;
stroke-miterlimit: 10;
}
]]></style>
</defs>
<path d="M256.7,393.3H825" class="g0_68"/>
<path d="M297.2,722.2H786" class="g1_68"/>
<path d="M294.1,722.2v0m493.5,0v0" class="g2_68"/>
<path d="M295.6,800.1H786" class="g1_68"/>
<path d="M292.6,800.1v0m495,0v0" class="g2_68"/>
<path d="M297.2,871.1H786" class="g1_68"/>
<path d="M294.1,871.1v0m493.5,0v0" class="g2_68"/>
<path d="M295.6,949H786" class="g1_68"/>
<path d="M292.6,949v0m495,0v0" class="g2_68"/>
<path d="M355.5,516.8H552.7v26H355.5v-26Zm197.2,0H726.2v26H552.7v-26Z" class="g3_68"/>
<path d="M552.7,542.5V517.2m0,48.2V543.2M355.1,565.8H552.7m0,0H726.5M552.7,588.4V566.2M355.1,588.7H552.7m0,0H726.5M552.7,611.3V589.1M355.1,611.7H552.7m0,0H726.5M552.7,634.3V612.1M355.1,634.6H552.7m0,0H726.5M552.7,657.2V635M355.1,657.6H552.7m0,0H726.5M552.7,680.2V658M355.5,565.4V543.2m370.7,22.2V543.2M355.5,588.4V566.2m370.7,22.2V566.2M355.5,611.3V589.1m370.7,22.2V589.1M355.5,634.3V612.1m370.7,22.2V612.1M355.5,657.2V635m370.7,22.2V635M355.5,680.2V658m370.7,22.2V658M355.1,680.5H552.7m0,0H726.5M355.1,516.8H552.7M355.5,542.5V517.2m197.2,-.4H726.5m-.3,25.7V517.2M355.1,542.8H552.7m0,0H726.5" class="g4_68"/>
</svg>