<?xml version="1.0" encoding="UTF-8" standalone="no"?>
<!DOCTYPE svg PUBLIC "-//W3C//DTD SVG 1.1//EN"
"http://www.w3.org/Graphics/SVG/1.1/DTD/svg11.dtd">
<svg viewBox="0 0 935 1182" version="1.1" xmlns="http://www.w3.org/2000/svg" xmlns:xlink="http://www.w3.org/1999/xlink">
<defs>
<style type="text/css"><![CDATA[
.g0_288{
fill: #F2F2F3;
}
.g1_288{
fill: none;
stroke: #231F20;
stroke-width: 1.527;
stroke-linecap: round;
stroke-linejoin: round;
stroke-dasharray: 0,4;
}
.g2_288{
fill: none;
stroke: #231F20;
stroke-width: 1.527;
stroke-linecap: round;
stroke-linejoin: round;
}
.g3_288{
fill: #E7E8E8;
}
.g4_288{
fill: none;
stroke: #231F20;
stroke-width: 0.763;
stroke-miterlimit: 10;
}
]]></style>
</defs>
<path d="M275,221.9H806.7V62.6H275V221.9Z" class="g0_288"/>
<path d="M297.2,426.7H786" class="g1_288"/>
<path d="M294.1,426.7v0m493.5,0v0" class="g2_288"/>
<path d="M295.6,769.6H786" class="g1_288"/>
<path d="M292.6,769.6v0m495,0v0" class="g2_288"/>
<path d="M257,508.8h75.3v68.8H257V508.8Zm75.3,0H504.2v68.8H332.3V508.8Zm171.9,0h75.1v68.8H504.2V508.8Zm75.1,0H824.6v68.8H579.3V508.8Z" class="g3_288"/>
<path d="M332.3,577.2v-68m171.9,68v-68m75.1,68v-68m-247,95.7v-27m171.9,27v-27m75.1,27v-27M256.7,605.3h75.6m0,0H504.2M332.3,630.5V605.6m171.9,-.3h75.1m-75.1,25.2V605.6m75.1,-.3H825M579.3,630.5V605.6M256.7,630.9h75.6m0,0H504.2M332.3,713.1V631.3m171.9,-.4h75.1m0,0H825M579.3,713.1V631.3M256.7,713.5h75.6m0,0H504.2M332.3,736V713.8m171.9,-.3h75.1m0,0H825M257,604.9v-27m567.6,27v-27M257,630.5V605.6m567.6,24.9V605.6M257,713.1V631.3m567.6,81.8V631.3M257,736V713.8M824.6,736V713.8M256.7,736.4h75.6m0,0H504.2m0,0h75.1m0,0H825M256.7,508.8h75.6M257,577.2v-68m75.3,-.4H504.2m0,0h75.1m0,0H825m-.4,68.4v-68M256.7,577.6h75.6m0,0H504.2m0,0h75.1m0,0H825" class="g4_288"/>
<path d="M270.8,856.4H810.9v26H270.8v-26Z" class="g3_288"/>
<path d="M465.8,904.9V882.7M270.4,905.3H465.8m0,0H811.3M465.8,927.9V905.7M270.4,928.2H465.8m0,0H811.3M465.8,970.7V928.6M270.4,971.1H465.8m0,0H811.3m-345.5,42.4V971.4m-195.4,42.5H465.8m0,0H811.3m-345.5,22.5v-22.2m-195.4,22.6H465.8m0,0H811.3m-345.5,42.4v-42M270.8,904.9V882.7m540.1,22.2V882.7M270.8,927.9V905.7m540.1,22.2V905.7m-540.1,65V928.6m540.1,42.1V928.6m-540.1,84.9V971.4m540.1,42.1V971.4m-540.1,65v-22.2m540.1,22.2v-22.2m-540.1,65v-42m540.1,42v-42m-540.5,42.4H465.8m0,0H811.3M270.4,856.4H465.8M270.8,882V856.7m195,-.3H811.3m-.4,25.6V856.7M270.4,882.4H465.8m0,0H811.3" class="g4_288"/>
</svg>