<?xml version="1.0" encoding="UTF-8" standalone="no"?>
<!DOCTYPE svg PUBLIC "-//W3C//DTD SVG 1.1//EN"
"http://www.w3.org/Graphics/SVG/1.1/DTD/svg11.dtd">
<svg viewBox="0 0 935 1182" version="1.1" xmlns="http://www.w3.org/2000/svg" xmlns:xlink="http://www.w3.org/1999/xlink">
<defs>
<style type="text/css"><![CDATA[
.g0_285{
fill: none;
stroke: #231F20;
stroke-width: 1.527;
stroke-linecap: round;
stroke-linejoin: round;
stroke-dasharray: 0,4;
}
.g1_285{
fill: none;
stroke: #231F20;
stroke-width: 1.527;
stroke-linecap: round;
stroke-linejoin: round;
}
.g2_285{
fill: #E7E8E8;
}
.g3_285{
fill: none;
stroke: #231F20;
stroke-width: 0.763;
stroke-miterlimit: 10;
}
]]></style>
</defs>
<path d="M149,365.6H639.4" class="g0_285"/>
<path d="M145.9,365.6v0m495,0v0" class="g1_285"/>
<path d="M110.4,73.7h75.2v68.8H110.4V73.7Zm75.2,0H297.9v68.8H185.6V73.7Zm112.3,0h77.9v68.8H297.9V73.7Zm77.9,0H678v68.8H375.8V73.7Z" class="g2_285"/>
<path d="M110,73.7h75.6m0,0H297.9M185.6,142.1v-68m112.3,-.4h77.9m-77.9,68.4v-68m77.9,-.4H678.3M375.8,142.1v-68M185.6,181.9v-39m112.3,39v-39m77.9,39v-39M110,182.2h75.6m0,0H297.9M185.6,221.6v-39m112.3,-.4h77.9m-77.9,39.4v-39m77.9,-.4H678.3M375.8,221.6v-39M110,222h75.6m0,0H297.9M185.6,292.3V222.4M297.9,222h77.9m0,0H678.3M375.8,292.3V222.4M110,292.6h75.6m0,0H297.9M185.6,332V293m112.3,-.4h77.9m0,0H678.3M110.4,181.9v-39m567.6,39v-39M110.4,221.6v-39m567.6,39v-39M110.4,292.3V222.4M678,292.3V222.4M110.4,332V293M678,332V293M110,332.4h75.6m0,0H297.9m0,0h77.9m0,0H678.3M110.4,142.1v-68m567.6,68v-68M110,142.5h75.6m0,0H297.9m0,0h77.9m0,0H678.3" class="g3_285"/>
<path d="M151.6,388.2H636.7v26H151.6v-26Z" class="g2_285"/>
<path d="M314.7,436.7V414.6M151.2,437.1H314.7m0,0H637.1M314.7,485.7V437.5M151.2,486H314.7m0,0H637.1M314.7,534.6V486.4M151.2,535H314.7m0,0H637.1M314.7,557.5V535.3M151.2,557.9H314.7m0,0H637.1M314.7,580.5V558.3M151.2,580.9H314.7m0,0H637.1M314.7,629.4V581.2M151.6,436.7V414.6m485.1,22.1V414.6M151.6,485.7V437.5m485.1,48.2V437.5M151.6,534.6V486.4m485.1,48.2V486.4M151.6,557.5V535.3m485.1,22.2V535.3M151.6,580.5V558.3m485.1,22.2V558.3M151.6,629.4V581.2m485.1,48.2V581.2M151.2,629.8H314.7m0,0H637.1M151.2,388.2H314.7M151.6,413.8V388.6m163.1,-.4H637.1m-.4,25.6V388.6M151.2,414.2H314.7m0,0H637.1" class="g3_285"/>
</svg>