<?xml version="1.0" encoding="UTF-8" standalone="no"?>
<!DOCTYPE svg PUBLIC "-//W3C//DTD SVG 1.1//EN"
"http://www.w3.org/Graphics/SVG/1.1/DTD/svg11.dtd">
<svg viewBox="0 0 935 1182" version="1.1" xmlns="http://www.w3.org/2000/svg" xmlns:xlink="http://www.w3.org/1999/xlink">
<defs>
<style type="text/css"><![CDATA[
.g0_249{
fill: #F2F2F3;
}
.g1_249{
fill: none;
stroke: #231F20;
stroke-width: 0.763;
stroke-miterlimit: 10;
}
]]></style>
</defs>
<path d="M128.3,512.7H660V427.4H128.3v85.3Z" class="g0_249"/>
<path d="M110,565.9H326.3M110.4,588.5V566.3m215.9,-.4h73.4m0,0h89.8m0,0h91.7m0,0h97.1m-97.1,22.6V566.3M678,588.5V566.3M110,588.8H326.3M110.4,628.6V589.2m215.9,-.4h73.4m0,0h89.8m-89.8,39.4v-39m89.8,-.4h91.7m-91.7,39.4v-39m91.7,-.4h97.1m-97.1,39.4v-39m96.8,39v-39m-567.6,62V628.6m288.9,0h90.2m-89.8,22.6V629m89.8,-.4h91.7m-91.7,22.6V629m91.7,-.4h97.1m-97.1,22.6V629M678,651.2V629M110,651.5H326.3M110.4,674.1V651.9m215.9,-.4h73.4m0,0h89.8m0,0h91.7m0,0h97.1m-.3,22.6V651.9M110,674.5H326.3M110.4,730.7V674.9m215.9,-.4h73.4m-73.4,56.2V674.9m73.4,-.4h89.8m-89.8,56.2V674.9m89.8,-.4h91.7m-91.7,56.2V674.9m91.7,-.4h97.1m-97.1,56.2V674.9M678,730.7V674.9M110,731H326.3M110.4,753.6V731.4M326.3,731h73.4m-73.4,22.6V731.4m73.4,-.4h89.8m-89.8,22.6V731.4m89.8,-.4h91.7m-91.7,22.6V731.4m91.7,-.4h97.1m-97.1,22.6V731.4M678,753.6V731.4M110,754H326.3M110.4,793.4v-39M326.3,754h73.4m-73.4,39.4v-39m73.4,-.4h89.8m-89.8,39.4v-39m89.8,-.4h91.7m-91.7,39.4v-39m91.7,-.4h97.1m-97.1,39.4v-39m96.8,39v-39M110,793.7H326.3M110.4,816.3V794.1m215.9,-.4h73.4m-73.4,22.6V794.1m73.4,-.4h89.8m-89.8,22.6V794.1m89.8,-.4h91.7m-91.7,22.6V794.1m91.7,-.4h97.1m-97.1,22.6V794.1M678,816.3V794.1M110,816.7H326.3M110.4,839.3V817.1m215.9,-.4h73.4m-73.4,22.6V817.1m73.4,-.4h89.8m-89.8,22.6V817.1m89.8,-.4h91.7m-91.7,22.6V817.1m91.7,-.4h97.1m-97.1,22.6V817.1M678,839.3V817.1M110,839.6H326.3M110.4,862.2V840m215.9,-.4h73.4m-73.4,22.6V840m73.4,-.4h89.8m-89.8,22.6V840m89.8,-.4h91.7m-91.7,22.6V840m91.7,-.4h97.1m-97.1,22.6V840M678,862.2V840M110,862.6H326.3M110.4,885.1V863m215.9,-.4h73.4m-73.4,22.5V863m73.4,-.4h89.8m-89.8,22.5V863m89.8,-.4h91.7m-91.7,22.5V863m91.7,-.4h97.1m-97.1,22.5V863M678,885.1V863M110,885.5H326.3M110.4,908.1V885.9m215.9,-.4h73.4m-73.4,22.6V885.9m73.4,-.4h89.8m-89.8,22.6V885.9m89.8,-.4h91.7m-91.7,22.6V885.9m91.7,-.4h97.1m-97.1,22.6V885.9M678,908.1V885.9M110,908.5H326.3M110.4,931V908.9m215.9,-.4h73.4M326.3,931V908.9m73.4,-.4h89.8M399.7,931V908.9m89.8,-.4h91.7M489.5,931V908.9m91.7,-.4h97.1M581.2,931V908.9M678,931V908.9M110,931.4H326.3M110.4,954V931.8m215.9,-.4h73.4M326.3,954V931.8m73.4,-.4h89.8M399.7,954V931.8m89.8,-.4h91.7M489.5,954V931.8m91.7,-.4h97.1M581.2,954V931.8M678,954V931.8M110,954.4H326.3M110.4,976.9V954.8m215.9,-.4h73.4m-73.4,22.5V954.8m73.4,-.4h89.8m-89.8,22.5V954.8m89.8,-.4h91.7m-91.7,22.5V954.8m91.7,-.4h97.1m-97.1,22.5V954.8M678,976.9V954.8M110,977.3H326.3m0,0h73.4m0,0h89.8m0,0h91.7m0,0h97.1" class="g1_249"/>
</svg>