<?xml version="1.0" encoding="UTF-8" standalone="no"?>
<!DOCTYPE svg PUBLIC "-//W3C//DTD SVG 1.1//EN"
"http://www.w3.org/Graphics/SVG/1.1/DTD/svg11.dtd">
<svg viewBox="0 0 935 1182" version="1.1" xmlns="http://www.w3.org/2000/svg" xmlns:xlink="http://www.w3.org/1999/xlink">
<defs>
<style type="text/css"><![CDATA[
.g0_195{
fill: #F2F2F3;
}
.g1_195{
fill: none;
stroke: #231F20;
stroke-width: 1.145;
stroke-miterlimit: 10;
}
.g2_195{
fill: #E7E8E8;
}
.g3_195{
fill: none;
stroke: #231F20;
stroke-width: 0.763;
stroke-miterlimit: 10;
}
]]></style>
</defs>
<path d="M128.3,125.5H660V62.6H128.3v62.9Z" class="g0_195"/>
<path d="M187.9,144.1H678.3m-490.4,24H678.3M110,388.1H678.3M148.2,922.8H678.3M148.2,948.4H678.3" class="g1_195"/>
<path d="M110.4,499.5H256.7v42.8H110.4V499.5Zm146.3,0h154v42.8h-154V499.5Zm154,0H602.2v42.8H410.7V499.5Zm191.5,0h70.3v42.8H602.2V499.5Z" class="g2_195"/>
<path d="M256.7,541.9V499.8m154,42.1V499.8m191.5,42.1V499.8M110.4,565.2V542.7m146.3,22.5V542.7m154,22.1V542.7m191.5,22.1V542.7m70.3,22.1V542.7M110.4,587.8V565.2m146.3,22.6V565.2m153.6,0H602.2M410.7,587.8V565.6m191.5,-.4h70.6m-70.6,22.6V565.6m70.3,22.2V565.6M110,588.2H256.7M110.4,611.1V588.5m146.3,-.3h154m-154,22.9V588.5m154,-.3H602.2M410.7,610.7V588.5m191.5,-.3h70.6m-70.6,22.5V588.5m70.3,22.2V588.5M110.4,633.7V611.1m146.3,22.6V611.1m153.6,0H602.2M410.7,633.7V611.5m191.5,-.4h70.6m-70.6,22.6V611.5m70.3,22.2V611.5M110,634.1H256.7M110.4,657V634.4m146.3,-.3h154M256.7,657V634.4m154,-.3H602.2M410.7,656.6V634.4m191.5,-.3h70.6m-70.6,22.5V634.4m70.3,22.2V634.4M110.4,679.6V657m146.3,22.6V657m153.6,0H602.2M410.7,679.6V657.4M602.2,657h70.6m-70.6,22.6V657.4m70.3,22.2V657.4M110,680H256.7M110.4,702.9V680.3M256.7,680h154m-154,22.9V680.3m154,-.3H602.2M410.7,702.5V680.3M602.2,680h70.6m-70.6,22.5V680.3m70.3,22.2V680.3M110.4,725.5V702.9m146.3,22.6V702.9m153.6,0H602.2M410.7,725.5V703.3m191.5,-.4h70.6m-70.6,22.6V703.3m70.3,22.2V703.3M110,725.8H256.7m-146.3,23V726.2m146.3,-.4h154m-154,23V726.2m154,-.4H602.2M410.7,748.4V726.2m191.5,-.4h70.6m-70.6,22.6V726.2m70.3,22.2V726.2M110.4,771.4V748.8m146.3,22.6V748.8m153.6,0H602.2M410.7,771.4V749.2m191.5,-.4h70.6m-70.6,22.6V749.2m70.3,22.2V749.2M110,771.7H256.7m0,0h154m0,0H602.2m0,0h70.6M110,499.5H256.7M110.4,541.9V499.8m146.3,-.3h154m0,0H602.2m0,0h70.6m-.3,42.4V499.8M110,542.3H256.7m0,0h154m0,0H602.2m0,0h70.6" class="g3_195"/>
</svg>