<?xml version="1.0" encoding="UTF-8" standalone="no"?>
<!DOCTYPE svg PUBLIC "-//W3C//DTD SVG 1.1//EN"
"http://www.w3.org/Graphics/SVG/1.1/DTD/svg11.dtd">
<svg viewBox="0 0 935 1182" version="1.1" xmlns="http://www.w3.org/2000/svg" xmlns:xlink="http://www.w3.org/1999/xlink">
<defs>
<style type="text/css"><![CDATA[
.g0_136{
fill: #F2F2F3;
}
.g1_136{
fill: none;
stroke: #231F20;
stroke-width: 1.145;
stroke-miterlimit: 10;
}
.g2_136{
fill: #E7E8E8;
}
.g3_136{
fill: #DCDDDE;
}
.g4_136{
fill: none;
stroke: #231F20;
stroke-width: 0.763;
stroke-miterlimit: 10;
}
.g5_136{
fill: none;
stroke: #231F20;
stroke-width: 3.055;
stroke-miterlimit: 10;
}
]]></style>
</defs>
<path d="M275,216.9H806.7V155.5H275v61.4Z" class="g0_136"/>
<path d="M275,371.4H806.7V287.5H275v83.9Z" class="g0_136"/>
<path d="M294.9,684.2H825M294.9,709.8H825" class="g1_136"/>
<path d="M340.2,447.3h73.5v42.8H340.2V447.3Zm73.5,0h55.1v42.8H413.7V447.3Zm55.1,0h72v42.8h-72V447.3Zm72,0h72.1v42.8H540.8V447.3Zm72.1,0h55v42.8h-55V447.3Zm55,0h73.5v42.8H667.9V447.3Z" class="g2_136"/>
<path d="M340.2,490.1h73.5v23H340.2v-23Zm73.5,0h55.1v23H413.7v-23Zm55.1,0h72v23h-72v-23Zm72,0h72.1v23H540.8v-23Zm72.1,0h55v23h-55v-23Zm55,0h73.5v23H667.9v-23Zm-327.7,23h73.5V536H340.2V513.1Zm73.5,0h55.1V536H413.7V513.1Zm55.1,0h72V536h-72V513.1Zm72,0h72.1V536H540.8V513.1Zm72.1,0h55V536h-55V513.1Zm55,0h73.5V536H667.9V513.1ZM340.2,536h73.5v23H340.2V536Zm73.5,0h55.1v23H413.7V536Zm55.1,0h72v23h-72V536Zm72,45.9h72.1v23H540.8v-23Zm72.1,0h55v23h-55v-23Zm55,0h73.5v23H667.9v-23Zm-327.7,23h73.5v22.9H340.2V604.9Zm73.5,0h55.1v22.9H413.7V604.9Zm55.1,0h72v22.9h-72V604.9Zm72,0h72.1v22.9H540.8V604.9Zm72.1,0h55v22.9h-55V604.9Zm55,0h73.5v22.9H667.9V604.9ZM340.2,627.8h73.5v23H340.2v-23Zm73.5,0h55.1v23H413.7v-23Zm55.1,0h72v23h-72v-23Z" class="g3_136"/>
<path d="M413.7,489.8V447.7m55.1,42.1V447.7m144.1,42.1V447.7m55,42.1V447.7m-327.7,65V490.5m73.5,22.2V490.5m55.1,22.2V490.5m144.1,22.2V490.5m55,22.2V490.5m73.5,22.2V490.5M339.9,513.1h73.8m-73.5,22.6V513.5m73.5,-.4h55.1m-55.1,22.6V513.5m55.1,-.4h70.5m-70.5,22.6V513.5m73.6,-.4h70.5m0,0h55m-55,22.6V513.5m55,-.4h73.9m-73.9,22.6V513.5m73.5,22.2V513.5M339.9,536h73.8m-73.5,22.6V536.4m73.5,-.4h55.1m-55.1,22.6V536.4m55.1,-.4h70.5m-70.5,22.6V536.4m73.6,-.4h70.5m0,0h55m-55,22.6V536.4m55,-.4h73.9m-73.9,22.6V536.4m73.5,22.2V536.4M339.9,559h73.8m-73.5,22.5V559.4m73.5,-.4h55.1m-55.1,22.5V559.4m55.1,-.4h70.5m-70.5,22.5V559.4m73.6,-.4h70.5m0,0h55m-55,22.5V559.4m55,-.4h73.9m-73.9,22.5V559.4m73.5,22.1V559.4M339.9,581.9h73.8m-73.5,22.6V582.3m73.5,-.4h55.1m-55.1,22.6V582.3m55.1,-.4h70.5m-70.5,22.6V582.3m73.6,-.4h70.5m0,0h55m-55,22.6V582.3m55,-.4h73.9m-73.9,22.6V582.3m73.5,22.2V582.3M339.9,604.9h73.8m-73.5,22.5V605.3m73.5,-.4h55.1m-55.1,22.5V605.3m55.1,-.4h70.5m-70.5,22.5V605.3m73.6,-.4h70.5m0,0h55m-55,22.5V605.3m55,-.4h73.9m-73.9,22.5V605.3m73.5,22.1V605.3M339.9,627.8h73.8m-73.5,22.6V628.2m73.5,-.4h55.1m-55.1,22.6V628.2m55.1,-.4h70.5m-70.5,22.6V628.2m73.6,-.4h70.5m0,0h55m-55,22.6V628.2m55,-.4h73.9m-73.9,22.6V628.2m73.5,22.2V628.2M339.9,650.8h73.8m0,0h55.1m0,0h72m0,0h72.1m0,0h55m0,0h73.9" class="g4_136"/>
<path d="M540.8,489.8V447.7m0,65.4V490.5m0,45.5V513.1m0,45.9V536m0,45.9V559m0,45.9v-23m0,45.9V604.9m0,45.5V627.8" class="g5_136"/>
<path d="M339.9,447.3h73.8m-73.5,42.5V447.7m73.5,-.4h55.1m0,0h72m0,0h72.1m0,0h55m0,0h73.9m-.4,42.5V447.7M339.9,490.1h73.8m0,0h55.1m0,0h72m0,0h72.1m0,0h55m0,0h73.9" class="g4_136"/>
<path d="M328.9,857.8h82v42.8h-82V857.8Zm82,0h63.6v42.8H410.9V857.8Zm63.6,0h72.4v42.8H474.5V857.8Zm72.4,0h60.5v42.8H546.9V857.8Zm60.5,0H671v42.8H607.4V857.8Zm63.6,0h83v42.8H671V857.8Z" class="g2_136"/>
<path d="M546.9,900.6h60.5v22.9H546.9V900.6Zm60.5,0H671v22.9H607.4V900.6Zm63.6,0h83v22.9H671V900.6ZM328.9,923.5h82v23h-82v-23Zm82,0h63.6v23H410.9v-23Zm63.6,0h72.4v23H474.5v-23Zm72.4,0h60.5v23H546.9v-23Zm60.5,0H671v23H607.4v-23Zm63.6,0h83v23H671v-23Zm-342.1,23h82v22.9h-82V946.5Zm82,0h63.6v22.9H410.9V946.5Zm63.6,0h72.4v22.9H474.5V946.5ZM328.9,969.4h82v23h-82v-23Zm82,0h63.6v23H410.9v-23Zm63.6,0h72.4v23H474.5v-23Zm72.4,23h60.5v22.9H546.9V992.4Zm60.5,0H671v22.9H607.4V992.4Zm63.6,0h83v22.9H671V992.4Zm-124.1,22.9h60.5v23H546.9v-23Zm60.5,0H671v23H607.4v-23Zm63.6,0h83v23H671v-23Zm-342.1,23h82v22.9h-82v-22.9Zm82,0h63.6v22.9H410.9v-22.9Zm63.6,0h72.4v22.9H474.5v-22.9Z" class="g3_136"/>
<path d="M410.9,899.1V858.2m63.6,40.9V858.2m132.9,42v-42m63.6,42v-42M410.9,922V902.1M474.5,922V902.1m132.9,21.1V901M671,923.2V901m83,22.2V901M328.9,946.1v-21m82,21v-21m63.6,21v-21m73.9,-1.6h59m0,0H671m-63.6,22.6V923.9m63.6,-.4h83.3M671,946.1V923.9m83,22.2V923.9M328.5,946.5h82.4m-82,22.6V946.9m82,-.4h63.6m-63.6,22.6V946.9m63.6,-.4h70.8m-70.8,22.6V946.9m73.9,-.4h59m0,0H671m-63.6,22.6V946.9m63.6,-.4h83.3M671,969.1V946.9m83,22.2V946.9M328.5,969.4h82.4m-82,22.6V969.8m82,-.4h63.6M410.9,992V969.8m63.6,-.4h70.8M474.5,992V969.8m73.9,-.4h59m0,0H671M607.4,992V969.8m63.6,-.4h83.3M671,992V969.8M754,992V969.8M328.5,992.4h82.4m-82,22.5V992.8m82,-.4h63.6m-63.6,22.5V992.8m63.6,-.4h70.8m-70.8,22.5V992.8m73.9,-.4h59m0,0H671m-63.6,22.5V992.8m63.6,-.4h83.3M671,1014.9V992.8m83,22.1V992.8m-425.5,22.5h82.4m-82,22.6v-22.2m82,-.4h63.6m-63.6,22.6v-22.2m63.6,-.4h70.8m-70.8,22.6v-22.2m73.9,-.4h59m0,0H671m-63.6,22.6v-22.2m63.6,-.4h83.3M671,1037.9v-22.2m83,22.2v-22.2m-425.5,22.6h82.4m-82,22.5v-22.1m82,-.4h63.6m-63.6,22.5v-22.1m63.6,-.4h70.8m-70.8,22.5v-22.1m73.9,-.4h59m0,0H671m-63.6,22.5v-22.1m63.6,-.4h83.3M671,1060.8v-22.1m83,22.1v-22.1m-425.5,22.5h82.4m0,0h63.6m0,0h72.4m0,0h60.5m0,0H671m0,0h83.3" class="g4_136"/>
<path d="M546.9,899.1V858.2m0,88.3V925.1m0,44.3V946.5m0,45.9v-23m0,45.9V992.4m0,45.9v-23m0,45.5v-22.5M328.9,922V902.1m218,19.9V902.1M327.3,923.5h83.6m0,0h63.6m0,0h73.9" class="g5_136"/>
<path d="M328.5,857.8h82.4m-82,41.3V858.2m82,-.4h63.6m0,0h72.4m0,0h60.5m0,0H671m0,0h83.3m-.3,42.4v-42M548.4,900.6h59m0,0H671m0,0h83.3" class="g4_136"/>
<path d="M327.3,900.6h83.6m0,0h63.6m0,0h73.9" class="g5_136"/>
</svg>