<?xml version="1.0" encoding="UTF-8" standalone="no"?>
<!DOCTYPE svg PUBLIC "-//W3C//DTD SVG 1.1//EN"
"http://www.w3.org/Graphics/SVG/1.1/DTD/svg11.dtd">
<svg viewBox="0 0 935 1182" version="1.1" xmlns="http://www.w3.org/2000/svg" xmlns:xlink="http://www.w3.org/1999/xlink">
<defs>
<clipPath id="c0_17"><path d="M0,1233.8V823.2H957.9v410.6Z"/></clipPath>
<style type="text/css"><![CDATA[
.g0_17{
fill: none;
stroke: #D6D7D9;
stroke-width: 0.69;
stroke-miterlimit: 10;
}
.g1_17{
fill: none;
stroke: #D7D8DA;
stroke-width: 0.69;
stroke-miterlimit: 10;
}
.g2_17{
fill: none;
stroke: #D8D9DA;
stroke-width: 0.69;
stroke-miterlimit: 10;
}
.g3_17{
fill: none;
stroke: #D9DADB;
stroke-width: 0.69;
stroke-miterlimit: 10;
}
.g4_17{
fill: #EDEEEF;
}
]]></style>
</defs>
<image preserveAspectRatio="none" x="108" y="61" width="260" height="25" xlink:href="img/1.png"/>
<g clip-path="url(#c0_17)">
<path d="M-59.2,806.8c0,0,140.8,336.7,377.2,347c212.7,9.3,383.5,-163.9,595.7,-189.2c271.5,-32.3,959.8,273.6,959.8,273.6M-57.8,818.9c0,0,137.3,330.4,374.6,341.8C529,1170.7,699,998.3,914.2,972.5c272.4,-32.5,949.4,273,951.7,270.7M-56.5,831c0,0,133.9,324.2,372.2,336.7c211.5,10.6,380.7,-161,599.1,-187.3c273.2,-32.7,938.9,272.3,943.6,267.7M-55.2,843.1c0,0,130.6,317.9,369.8,331.5c210.9,11.3,379.3,-159.5,600.7,-186.2c274.1,-33,928.5,271.5,935.5,264.7M-53.8,855.2c0,0,127.1,312.2,367.2,326.3c210.4,12.5,377.9,-158,602.4,-185.2c275,-33.2,918.2,270.8,927.4,261.7" class="g0_17"/>
<path d="M-52.5,867.4c0,0,123.7,305.9,364.8,321.1c209.7,13.1,376.5,-156.6,604,-184.3c275.9,-33.4,907.8,270.2,919.4,258.8M-51.2,879.5c0,0,120.3,299.8,362.3,315.9c209.2,13.9,375.2,-155.1,605.8,-183.3c276.7,-33.6,897.3,269.5,911.2,255.8M-49.8,891.6c0,0,116.8,293.6,359.8,310.7C518.6,1217,683.7,1048.7,917.4,1020c277.6,-33.8,886.9,268.8,903.2,252.9M-48.5,903.7c0,0,113.4,287.5,357.4,305.6c208,15.4,372.3,-152.2,609,-181.4c278.5,-34,876.6,268.2,895.1,250M-47.2,915.8c0,0,110.1,281.3,354.9,300.4c207.4,16.1,370.9,-150.7,610.7,-180.4c279.4,-34.2,866.2,267.5,887.1,247M-45.8,928c0,0,106.6,275.1,352.4,295.1C513.4,1240,676.1,1073.9,919,1043.8c280.2,-34.5,855.7,266.7,878.9,244M-44.5,940.1c0,0,103.2,268.9,349.9,289.9c206.3,17.6,368.2,-147.7,614.1,-178.3c281.1,-34.7,845.3,266,870.9,241M-43.2,952.2c0,0,99.8,262.7,347.5,284.8C509.9,1255.3,671,1090.7,920,1059.6c282,-34.9,835,265.4,862.8,238.1M-41.8,964.3c0,0,96.3,256.5,345,279.6c205,19,365.3,-144.8,617.3,-176.4c282.9,-35,824.6,264.7,854.8,235.1M-40.5,976.4c0,0,93,250.3,342.5,274.4c204.5,19.8,363.9,-143.3,619,-175.4c283.8,-35.2,814.2,264,846.7,232.2M-39.2,988.6c0,0,89.6,244,340.1,269.2c203.9,20.4,362.5,-141.9,620.7,-174.5c284.6,-35.4,803.7,263.4,838.6,229.2M-37.8,1000.7c0,0,86.1,237.8,337.5,264C503,1285.8,660.9,1124.3,922.1,1091.3c285.5,-35.7,793.4,262.6,830.5,226.2" class="g1_17"/>
<path d="M-36.5,1012.8c0,0,82.7,231.6,335.1,258.8c202.7,21.8,359.7,-138.9,624,-172.4c286.4,-35.9,783,261.9,822.5,223.2M-35.2,1024.9c0,0,79.3,225.4,332.7,253.6c202.1,22.6,358.3,-137.4,625.6,-171.4c287.3,-36.1,772.6,261.2,814.4,220.3M-33.8,1037c0,0,75.9,219.2,330.1,248.5c201.6,23.2,356.9,-136,627.4,-170.5c288.1,-36.3,762.1,260.6,806.2,217.3M-32.5,1049.2c0,0,72.5,212.9,327.7,243.2c200.9,23.9,355.5,-134.5,629,-169.5c289,-36.5,751.8,259.9,798.2,214.4M-31.2,1061.3c0,0,69.1,206.7,325.2,238c200.4,24.6,354.1,-133,630.7,-168.5c289.9,-36.7,741.4,259.2,790.1,211.4M-29.8,1073.4c0,0,65.6,200.4,322.7,232.9c199.8,25.2,352.7,-131.6,632.3,-167.6c290.8,-36.9,731,258.5,782.1,208.5M-28.5,1085.5c0,0,62.2,194.2,320.3,227.7c199.2,25.9,351.3,-130.1,634,-166.5c291.6,-37.2,720.5,257.8,773.9,205.5M-27.2,1097.6c0,0,58.9,187.9,317.8,222.5c198.6,26.5,349.9,-128.6,635.7,-165.5c292.5,-37.4,710.2,257.1,765.9,202.5M-25.8,1109.8c0,0,55.4,181.6,315.3,217.2c198,27.2,348.5,-127.1,637.3,-164.5c293.4,-37.6,699.8,256.4,757.8,199.6M-24.5,1121.9c0,0,52,175.3,312.8,212.1c197.5,27.8,347.1,-125.7,639,-163.6c294.3,-37.8,689.4,255.8,749.8,196.6M-23.2,1134c0,0,48.6,169,310.4,206.9c196.9,28.5,345.7,-124.2,640.7,-162.6c295.1,-38,678.9,255.1,741.6,193.7M-21.8,1146.1c0,0,45.2,162.8,307.9,201.7c196.2,29.1,344.3,-122.7,642.3,-161.6C1224.5,1148,1597,1440.6,1662,1376.9" class="g2_17"/>
<path d="M-20.5,1158.2c0,0,41.8,156.5,305.4,196.6c195.7,29.7,342.9,-121.3,644,-160.6c297,-38.5,658.2,253.6,725.5,187.7M-19.2,1170.4c0,0,38.4,150.1,303,191.3c195.1,30.4,341.5,-119.8,645.6,-159.6c297.9,-38.7,647.8,253,717.5,184.7M-17.8,1182.5c0,0,35,143.8,300.4,186.1c194.6,31,340.1,-118.3,647.3,-158.6c298.8,-38.9,637.4,252.3,709.4,181.8M-16.5,1194.6c0,0,31.6,137.5,298,180.9c194,31.7,338.7,-116.8,649,-157.6c299.6,-39.1,627,251.6,701.3,178.8" class="g3_17"/>
</g>
<path d="M100.8,687.7H763.9V651.1H100.8v36.6Z" class="g4_17"/>
</svg>