<?xml version="1.0" encoding="UTF-8" standalone="no"?>
<!DOCTYPE svg PUBLIC "-//W3C//DTD SVG 1.1//EN"
"http://www.w3.org/Graphics/SVG/1.1/DTD/svg11.dtd">
<svg viewBox="0 0 935 1182" version="1.1" xmlns="http://www.w3.org/2000/svg" xmlns:xlink="http://www.w3.org/1999/xlink">
<defs>
<style type="text/css"><![CDATA[
.g0_91{
fill: none;
stroke: #231F20;
stroke-width: 1.527;
stroke-linecap: round;
stroke-linejoin: round;
stroke-dasharray: 0,4;
}
.g1_91{
fill: none;
stroke: #231F20;
stroke-width: 1.527;
stroke-linecap: round;
stroke-linejoin: round;
}
.g2_91{
fill: #F2F2F3;
}
.g3_91{
fill: none;
stroke: #231F20;
stroke-width: 1.145;
stroke-miterlimit: 10;
}
]]></style>
</defs>
<path d="M150.5,66.4H639.4" class="g0_91"/>
<path d="M147.4,66.4v0m493.5,0v0" class="g1_91"/>
<path d="M149,203.1H639.4" class="g0_91"/>
<path d="M145.9,203.1v0m495,0v0" class="g1_91"/>
<path d="M128.3,580.3H660V379.2H128.3V580.3Z" class="g2_91"/>
<path d="M150.5,675.1H639.4" class="g0_91"/>
<path d="M147.4,675.1v0m493.5,0v0" class="g1_91"/>
<path d="M149,792.7H639.4" class="g0_91"/>
<path d="M145.9,792.7v0m495,0v0" class="g1_91"/>
<path d="M187.9,811.2H678.3M187.9,835.3H678.3" class="g3_91"/>
<path d="M150.5,905.8H639.4" class="g0_91"/>
<path d="M147.4,905.8v0m493.5,0v0" class="g1_91"/>
<path d="M149,985.2H639.4" class="g0_91"/>
<path d="M145.9,985.2v0m495,0v0" class="g1_91"/>
</svg>