<?xml version="1.0" encoding="UTF-8" standalone="no"?>
<!DOCTYPE svg PUBLIC "-//W3C//DTD SVG 1.1//EN"
"http://www.w3.org/Graphics/SVG/1.1/DTD/svg11.dtd">
<svg viewBox="0 0 935 1182" version="1.1" xmlns="http://www.w3.org/2000/svg" xmlns:xlink="http://www.w3.org/1999/xlink">
<defs>
<style type="text/css"><![CDATA[
.g0_181{
fill: #F2F2F3;
}
.g1_181{
fill: none;
stroke: #231F20;
stroke-width: 1.145;
stroke-miterlimit: 10;
}
.g2_181{
fill: #E7E8E8;
}
.g3_181{
fill: none;
stroke: #231F20;
stroke-width: 0.763;
stroke-miterlimit: 10;
}
]]></style>
</defs>
<path d="M128.3,190.8H660V128H128.3v62.8Z" class="g0_181"/>
<path d="M148.2,214H678.3M148.2,239.6H678.3" class="g1_181"/>
<path d="M128.3,347.3H660V284.4H128.3v62.9Z" class="g0_181"/>
<path d="M148.2,674H678.3M148.2,699.6H678.3" class="g1_181"/>
<path d="M128.3,902H660V839.2H128.3V902Z" class="g0_181"/>
<path d="M110.4,369.9H267.7v42.8H110.4V369.9Zm157.3,0H423.5v42.8H267.7V369.9Zm155.8,0H608.7v42.8H423.5V369.9Zm185.2,0H678v42.8H608.7V369.9Z" class="g2_181"/>
<path d="M267.7,412.3v-42m155.8,42v-42m185.2,42v-42M110.4,435.6V413.1m157.3,22.5V413.1m155.8,22.1V413.1m185.2,22.1V413.1M678,435.2V413.1M110.4,458.2V435.6m157.3,22.6V435.6m155.4,0H608.7M423.5,458.2V436m185.2,-.4h69.6m-69.6,22.6V436M678,458.2V436M110,458.6H267.7M110.4,481.5V459m157.3,-.4H423.5M267.7,481.5V459m155.8,-.4H608.7M423.5,481.1V459m185.2,-.4h69.6m-69.6,22.5V459M678,481.1V459M110.4,504.1V481.5m157.3,22.6V481.5m155.4,0H608.7M423.5,504.1V481.9m185.2,-.4h69.6m-69.6,22.6V481.9M678,504.1V481.9M110,504.5H267.7M110.4,527.4V504.9m157.3,-.4H423.5M267.7,527.4V504.9m155.8,-.4H608.7M423.5,527V504.9m185.2,-.4h69.6M608.7,527V504.9M678,527V504.9M110.4,550V527.4M267.7,550V527.4m155.4,0H608.7M423.5,550V527.8m185.2,-.4h69.6M608.7,550V527.8M678,550V527.8M110,550.4H267.7M110.4,573.3V550.7m157.3,-.3H423.5M267.7,573.3V550.7m155.8,-.3H608.7M423.5,572.9V550.7m185.2,-.3h69.6m-69.6,22.5V550.7M678,572.9V550.7M110.4,595.9V573.3m157.3,22.6V573.3m155.4,0H608.7M423.5,595.9V573.7m185.2,-.4h69.6m-69.6,22.6V573.7M678,595.9V573.7M110,596.3H267.7M110.4,619.2V596.6m157.3,-.3H423.5M267.7,619.2V596.6m155.8,-.3H608.7M423.5,618.8V596.6m185.2,-.3h69.6m-69.6,22.5V596.6M678,618.8V596.6M110.4,643.3V619.2m157.3,24.1V619.2m155.4,0H608.7M423.5,643.3V619.6m185.2,-.4h69.6m-69.6,24.1V619.6M678,643.3V619.6M110,643.7H267.7m0,0H423.5m0,0H608.7m0,0h69.6M110,369.9H267.7M110.4,412.3v-42m157.3,-.4H423.5m0,0H608.7m0,0h69.6m-.3,42.4v-42M110,412.7H267.7m0,0H423.5m0,0H608.7m0,0h69.6" class="g3_181"/>
</svg>