<?xml version="1.0" encoding="UTF-8" standalone="no"?>
<!DOCTYPE svg PUBLIC "-//W3C//DTD SVG 1.1//EN"
"http://www.w3.org/Graphics/SVG/1.1/DTD/svg11.dtd">
<svg viewBox="0 0 935 1182" version="1.1" xmlns="http://www.w3.org/2000/svg" xmlns:xlink="http://www.w3.org/1999/xlink">
<defs>
<style type="text/css"><![CDATA[
.g0_295{
fill: none;
stroke: #231F20;
stroke-width: 1.145;
stroke-miterlimit: 10;
}
.g1_295{
fill: #F2F2F3;
}
.g2_295{
fill: none;
stroke: #231F20;
stroke-width: 1.527;
stroke-linecap: round;
stroke-linejoin: round;
stroke-dasharray: 0,4;
}
.g3_295{
fill: none;
stroke: #231F20;
stroke-width: 1.527;
stroke-linecap: round;
stroke-linejoin: round;
}
.g4_295{
fill: #E7E8E8;
}
.g5_295{
fill: none;
stroke: #231F20;
stroke-width: 0.763;
stroke-miterlimit: 10;
}
]]></style>
</defs>
<path d="M148.2,68.7H678.3M148.2,94.3H678.3" class="g0_295"/>
<path d="M128.3,332.5H660V224.7H128.3V332.5Z" class="g1_295"/>
<path d="M150.5,353.9H639.4" class="g2_295"/>
<path d="M147.4,353.9v0m493.5,0v0" class="g3_295"/>
<path d="M149,898H639.4" class="g2_295"/>
<path d="M145.9,898v0m495,0v0" class="g3_295"/>
<path d="M203.9,517.8H584.5v26H203.9v-26Z" class="g4_295"/>
<path d="M306.6,566.3V544.2m168.2,22.1V544.2M203.5,566.7H306.6m0,0H474.8M306.6,589.3V567.1m168.2,-.4h110m-110,22.6V567.1M203.5,589.7H306.6m0,0H474.8M306.6,612.2V590.1m168.2,-.4h110m-110,22.5V590.1M203.5,612.6H306.6m0,0H474.8M306.6,635.2V613m168.2,-.4h110m-110,22.6V613M203.9,566.3V544.2m380.6,22.1V544.2M203.9,589.3V567.1m380.6,22.2V567.1M203.9,612.2V590.1m380.6,22.1V590.1M203.9,635.2V613m380.6,22.2V613m-381,22.6H306.6m0,0H474.8m0,0h110M203.5,517.8H306.6M203.9,543.4V518.2m102.7,-.4H474.8m0,0h110m-.3,25.6V518.2m-381,25.6H306.6m0,0H474.8m0,0h110" class="g5_295"/>
</svg>