<?xml version="1.0" encoding="UTF-8" standalone="no"?>
<!DOCTYPE svg PUBLIC "-//W3C//DTD SVG 1.1//EN"
"http://www.w3.org/Graphics/SVG/1.1/DTD/svg11.dtd">
<svg viewBox="0 0 935 1182" version="1.1" xmlns="http://www.w3.org/2000/svg" xmlns:xlink="http://www.w3.org/1999/xlink">
<defs>
<style type="text/css"><![CDATA[
.g0_217{
fill: #F2F2F3;
}
.g1_217{
fill: none;
stroke: #231F20;
stroke-width: 1.145;
stroke-miterlimit: 10;
}
.g2_217{
fill: none;
stroke: #231F20;
stroke-width: 1.527;
stroke-linecap: round;
stroke-linejoin: round;
stroke-dasharray: 0,4;
}
.g3_217{
fill: none;
stroke: #231F20;
stroke-width: 1.527;
stroke-linecap: round;
stroke-linejoin: round;
}
.g4_217{
fill: #E7E8E8;
}
.g5_217{
fill: none;
stroke: #231F20;
stroke-width: 0.763;
stroke-miterlimit: 10;
}
]]></style>
</defs>
<path d="M128.3,125.5H660V62.6H128.3v62.9Z" class="g0_217"/>
<path d="M187.9,144.1H678.3m-490.4,24H678.3M148.2,583.4H678.3M148.2,609H678.3" class="g1_217"/>
<path d="M128.3,736.7H660V675.2H128.3v61.5Z" class="g0_217"/>
<path d="M187.9,756.7H678.3m-490.4,24H678.3" class="g1_217"/>
<path d="M150.5,872.6H639.4" class="g2_217"/>
<path d="M147.4,872.6v0m493.5,0v0" class="g3_217"/>
<path d="M149,952H639.4" class="g2_217"/>
<path d="M145.9,952v0m495,0v0" class="g3_217"/>
<path d="M187.9,970.6H678.3m-490.4,24H678.3" class="g1_217"/>
<path d="M110.4,261.1H401.8v26H110.4v-26Zm291.4,0H678v26H401.8v-26Z" class="g4_217"/>
<path d="M401.8,286.7V261.5m-291.4,65v-39m291.4,39v-39m276.2,39v-39M110,326.9H401.8M110.4,383.1V327.3m291.4,-.4H678.3M401.8,383.1V327.3M678,383.1V327.3M110,383.4H401.8M110.4,422.8v-39m291.4,-.4H678.3M401.8,422.8v-39m276.2,39v-39M110,423.2H401.8m0,0H678.3M110,261.1H401.8M110.4,286.7V261.5m291.4,-.4H678.3m-.3,25.6V261.5M110,287.1H401.8m0,0H678.3" class="g5_217"/>
</svg>