<?xml version="1.0" encoding="UTF-8" standalone="no"?>
<!DOCTYPE svg PUBLIC "-//W3C//DTD SVG 1.1//EN"
"http://www.w3.org/Graphics/SVG/1.1/DTD/svg11.dtd">
<svg viewBox="0 0 935 1182" version="1.1" xmlns="http://www.w3.org/2000/svg" xmlns:xlink="http://www.w3.org/1999/xlink">
<defs>
<style type="text/css"><![CDATA[
.g0_229{
fill: none;
stroke: #231F20;
stroke-width: 1.145;
stroke-miterlimit: 10;
}
.g1_229{
fill: #E7E8E8;
}
.g2_229{
fill: none;
stroke: #231F20;
stroke-width: 0.763;
stroke-miterlimit: 10;
}
]]></style>
</defs>
<path d="M148.2,68.7H678.3M148.2,94.3H678.3" class="g0_229"/>
<path d="M110.4,434.8H262.2V528H110.4V434.8Zm151.8,0h93.5V528H262.2V434.8Zm93.5,0H440V528H355.7V434.8Zm84.3,0H566.5V528H440V434.8Zm126.5,0H678V528H566.5V434.8Z" class="g1_229"/>
<path d="M262.2,527.7V435.2m93.5,92.5V435.2M440,527.7V435.2m126.5,92.5V435.2M110.4,550.6V528.4m151.8,22.2V528.4m93.5,22.2V528.4M440,550.6V528.4m126.5,22.2V528.4M678,550.6V528.4M110,551H262.2M110.4,573.6V551.4M262.2,551h93.5m-93.5,22.6V551.4m93.5,-.4H440m-84.3,22.6V551.4M440,551H566.5M440,573.6V551.4M566.5,551H678.3M566.5,573.6V551.4M678,573.6V551.4M110,573.9H262.2M110.4,596.5V574.3m151.8,-.4h93.5m-93.5,22.6V574.3m93.5,-.4H440m-84.3,22.6V574.3m84.3,-.4H566.5M440,596.5V574.3m126.5,-.4H678.3M566.5,596.5V574.3M678,596.5V574.3M110,596.9H262.2M110.4,619.5V597.3m151.8,-.4h93.5m-93.5,22.6V597.3m93.5,-.4H440m-84.3,22.6V597.3m84.3,-.4H566.5M440,619.5V597.3m126.5,-.4H678.3M566.5,619.5V597.3M678,619.5V597.3M110,619.8H262.2m0,0h93.5m0,0H440m0,0H566.5m0,0H678.3M110,434.8H262.2M110.4,527.7V435.2m151.8,-.4h93.5m0,0H440m0,0H566.5m0,0H678.3m-.3,92.9V435.2M110,528H262.2m0,0h93.5m0,0H440m0,0H566.5m0,0H678.3" class="g2_229"/>
</svg>