<?xml version="1.0" encoding="UTF-8" standalone="no"?>
<!DOCTYPE svg PUBLIC "-//W3C//DTD SVG 1.1//EN"
"http://www.w3.org/Graphics/SVG/1.1/DTD/svg11.dtd">
<svg viewBox="0 0 935 1182" version="1.1" xmlns="http://www.w3.org/2000/svg" xmlns:xlink="http://www.w3.org/1999/xlink">
<defs>
<style type="text/css"><![CDATA[
.g0_137{
fill: none;
stroke: #231F20;
stroke-width: 1.145;
stroke-miterlimit: 10;
}
.g1_137{
fill: #E7E8E8;
}
.g2_137{
fill: #DCDDDE;
}
.g3_137{
fill: none;
stroke: #231F20;
stroke-width: 0.763;
stroke-miterlimit: 10;
}
.g4_137{
fill: none;
stroke: #231F20;
stroke-width: 3.055;
stroke-miterlimit: 10;
}
]]></style>
</defs>
<path d="M148.2,280.6H678.3M148.2,306.2H678.3" class="g0_137"/>
<path d="M193.6,356.4h73.5v42.8H193.6V356.4Zm73.5,0h55v42.8h-55V356.4Zm55,0h72.1v42.8H322.1V356.4Zm72.1,0h72v42.8h-72V356.4Zm72,0h55.1v42.8H466.2V356.4Zm55.1,0h73.5v42.8H521.3V356.4Z" class="g1_137"/>
<path d="M193.6,399.2h73.5v23H193.6v-23Zm73.5,0h55v23h-55v-23Zm55,0h72.1v23H322.1v-23Zm72.1,0h72v23h-72v-23Zm72,0h55.1v23H466.2v-23Zm55.1,0h73.5v23H521.3v-23Zm-327.7,23h73.5v22.9H193.6V422.2Zm73.5,0h55v22.9h-55V422.2Zm55,0h72.1v22.9H322.1V422.2Zm72.1,0h72v22.9h-72V422.2Zm72,0h55.1v22.9H466.2V422.2Zm55.1,0h73.5v22.9H521.3V422.2ZM193.6,445.1h73.5v23H193.6v-23Zm73.5,0h55v23h-55v-23Zm55,0h72.1v23H322.1v-23ZM394.2,491h72v23h-72V491Zm72,0h55.1v23H466.2V491Zm55.1,0h73.5v23H521.3V491ZM193.6,514h73.5v22.9H193.6V514Zm73.5,0h55v22.9h-55V514Zm55,0h72.1v22.9H322.1V514Zm72.1,0h72v22.9h-72V514Zm72,0h55.1v22.9H466.2V514Zm55.1,0h73.5v22.9H521.3V514ZM193.6,536.9h73.5v23H193.6v-23Zm73.5,0h55v23h-55v-23Zm55,0h72.1v23H322.1v-23Z" class="g2_137"/>
<path d="M267.1,398.9V356.8m55,42.1V356.8m144.1,42.1V356.8m55.1,42.1V356.8m-327.7,65V399.6m73.5,22.2V399.6m55,22.2V399.6M193.2,422.2h73.9m-73.5,22.6V422.6m73.5,-.4h55m-55,22.6V422.6m55,-.4h72.1m-72.1,22.6V422.6M193.2,445.1h73.9m-73.5,22.6V445.5m73.5,-.4h55m-55,22.6V445.5m55,-.4h72.1m-72.1,22.6V445.5m144.1,22.2V445.5m55.1,22.2V445.5m73.5,22.2V445.5M193.2,468.1h73.9m-73.5,22.5V468.5m73.5,-.4h55m-55,22.5V468.5m55,-.4h70.5m-70.5,22.5V468.5m73.6,-.4h70.5m0,0h55.1m-55.1,22.5V468.5m55.1,-.4h73.8m-73.8,22.5V468.5m73.5,22.1V468.5M193.2,491h73.9m-73.5,22.6V491.4m73.5,-.4h55m-55,22.6V491.4m55,-.4h70.5m-70.5,22.6V491.4m73.6,-.4h70.5m0,0h55.1m-55.1,22.6V491.4m55.1,-.4h73.8m-73.8,22.6V491.4m73.5,22.2V491.4M193.2,514h73.9m-73.5,22.5V514.4m73.5,-.4h55m-55,22.5V514.4m55,-.4h70.5m-70.5,22.5V514.4m73.6,-.4h70.5m0,0h55.1m-55.1,22.5V514.4m55.1,-.4h73.8m-73.8,22.5V514.4m73.5,22.1V514.4M193.2,536.9h73.9m-73.5,22.6V537.3m73.5,-.4h55m-55,22.6V537.3m55,-.4h70.5m-70.5,22.6V537.3m73.6,-.4h70.5m0,0h55.1m-55.1,22.6V537.3m55.1,-.4h73.8m-73.8,22.6V537.3m73.5,22.2V537.3M193.2,559.9h73.9m0,0h55m0,0h72.1m0,0h72m0,0h55.1m0,0h73.8" class="g3_137"/>
<path d="M394.2,398.9V356.8m0,111.3V445.5m0,45.5V468.1m0,45.9V491m0,45.9V514m0,45.5V536.9m0,-115.1V399.6m0,45.2V422.6" class="g4_137"/>
<path d="M466.2,421.8V399.6m55.1,22.2V399.6m73.5,22.2V399.6M394.2,422.2h72m0,0h55.1m-55.1,22.6V422.6m55.1,-.4h73.8m-73.8,22.6V422.6m73.5,22.2V422.6M394.2,445.1h72m0,0h55.1m0,0h73.8M193.2,356.4h73.9m-73.5,42.5V356.8m73.5,-.4h55m0,0h72.1m0,0h72m0,0h55.1m0,0h73.8m-.3,42.5V356.8M193.2,399.2h73.9m0,0h55m0,0h72.1m0,0h72m0,0h55.1m0,0h73.8" class="g3_137"/>
<path d="M194.1,719.5h73.5v42.8H194.1V719.5Zm73.5,0h55.1v42.8H267.6V719.5Zm55.1,0h72v42.8h-72V719.5Zm72,0h72.1v42.8H394.7V719.5Zm72.1,0h55.1v42.8H466.8V719.5Zm55.1,0h73.4v42.8H521.9V719.5Z" class="g1_137"/>
<path d="M194.1,762.3h73.5v23H194.1v-23Zm73.5,0h55.1v23H267.6v-23Zm55.1,0h72v23h-72v-23Zm72,0h72.1v23H394.7v-23Zm72.1,0h55.1v23H466.8v-23Zm55.1,0h73.4v23H521.9v-23Zm-327.8,23h73.5v22.9H194.1V785.3Zm73.5,0h55.1v22.9H267.6V785.3Zm55.1,0h72v22.9h-72V785.3ZM194.1,808.2h73.5v23H194.1v-23Zm73.5,0h55.1v23H267.6v-23Zm55.1,0h72v23h-72v-23Zm72,45.9h72.1v23H394.7v-23Zm72.1,0h55.1v23H466.8v-23Zm55.1,0h73.4v23H521.9v-23Zm-327.8,23h73.5V900H194.1V877.1Zm73.5,0h55.1V900H267.6V877.1Zm55.1,0h72V900h-72V877.1Zm72,0h72.1V900H394.7V877.1Zm72.1,0h55.1V900H466.8V877.1Zm55.1,0h73.4V900H521.9V877.1ZM194.1,900h73.5v23H194.1V900Zm73.5,0h55.1v23H267.6V900Zm55.1,0h72v23h-72V900Z" class="g2_137"/>
<path d="M267.6,760.8V719.9m55.1,40.9V719.9m144.1,42v-42m55.1,42v-42M267.6,783.7V763.9m55.1,19.8V763.9m144.1,21V762.7m55.1,22.2V762.7m73.4,22.2V762.7M194.1,807.8v-21m73.5,21v-21m55.1,21v-21m73.6,-1.5h70.5m0,0h55.1m-55.1,22.5V785.7m55.1,-.4h73.8m-73.8,22.5V785.7m73.4,22.1V785.7M193.8,808.2h73.8m-73.5,22.6V808.6m73.5,-.4h55.1m-55.1,22.6V808.6m55.1,-.4h70.5m-70.5,22.6V808.6m73.6,-.4h70.5m0,0h55.1m-55.1,22.6V808.6m55.1,-.4h73.8m-73.8,22.6V808.6m73.4,22.2V808.6M193.8,831.2h73.8m-73.5,22.5V831.6m73.5,-.4h55.1m-55.1,22.5V831.6m55.1,-.4h70.5m-70.5,22.5V831.6m73.6,-.4h70.5m0,0h55.1m-55.1,22.5V831.6m55.1,-.4h73.8m-73.8,22.5V831.6m73.4,22.1V831.6M193.8,854.1h73.8m-73.5,22.6V854.5m73.5,-.4h55.1m-55.1,22.6V854.5m55.1,-.4h70.5m-70.5,22.6V854.5m73.6,-.4h70.5m0,0h55.1m-55.1,22.6V854.5m55.1,-.4h73.8m-73.8,22.6V854.5m73.4,22.2V854.5M193.8,877.1h73.8m-73.5,22.5V877.4m73.5,-.3h55.1m-55.1,22.5V877.4m55.1,-.3h70.5m-70.5,22.5V877.4m73.6,-.3h70.5m0,0h55.1m-55.1,22.5V877.4m55.1,-.3h73.8m-73.8,22.5V877.4m73.4,22.2V877.4M193.8,900h73.8m-73.5,22.6V900.4m73.5,-.4h55.1m-55.1,22.6V900.4m55.1,-.4h70.5m-70.5,22.6V900.4m73.6,-.4h70.5m0,0h55.1m-55.1,22.6V900.4m55.1,-.4h73.8m-73.8,22.6V900.4m73.4,22.2V900.4M193.8,923h73.8m0,0h55.1m0,0h72m0,0h72.1m0,0h55.1m0,0h73.8" class="g3_137"/>
<path d="M394.7,760.8V719.9m0,88.3V786.8m0,44.4v-23m0,45.9V831.2m0,45.9v-23m0,45.9V877.1m0,45.5V900M194.1,783.7V763.9m200.6,19.8V763.9M192.6,785.3h75m0,0h55.1m0,0h73.6" class="g4_137"/>
<path d="M193.8,719.5h73.8m-73.5,41.3V719.9m73.5,-.4h55.1m0,0h72m0,0h72.1m0,0h55.1m0,0h73.8m-.4,42.4v-42m-199,42.4h70.5m0,0h55.1m0,0h73.8" class="g3_137"/>
<path d="M192.6,762.3h75m0,0h55.1m0,0h73.6" class="g4_137"/>
</svg>