<?xml version="1.0" encoding="UTF-8" standalone="no"?>
<!DOCTYPE svg PUBLIC "-//W3C//DTD SVG 1.1//EN"
"http://www.w3.org/Graphics/SVG/1.1/DTD/svg11.dtd">
<svg viewBox="0 0 935 1182" version="1.1" xmlns="http://www.w3.org/2000/svg" xmlns:xlink="http://www.w3.org/1999/xlink">
<defs>
<style type="text/css"><![CDATA[
.g0_281{
fill: #F2F2F3;
}
.g1_281{
fill: #E7E8E8;
}
.g2_281{
fill: none;
stroke: #231F20;
stroke-width: 0.763;
stroke-miterlimit: 10;
}
]]></style>
</defs>
<path d="M128.3,755.8H660V604.5H128.3V755.8Z" class="g0_281"/>
<path d="M110.4,228.6h75.2v68.7H110.4V228.6Zm75.2,0H357.5v68.7H185.6V228.6Zm171.9,0H460.6v68.7H357.5V228.6Zm103.1,0H678v68.7H460.6V228.6Z" class="g1_281"/>
<path d="M185.6,297V228.9M357.5,297V228.9M460.6,297V228.9m-275,141.4V297.7m171.9,72.6V297.7m103.1,72.6V297.7M110,370.7h75.6m0,0H357.5m-171.9,73V371.1m171.9,-.4H460.6m-103.1,73V371.1m103.1,-.4H678.3m-217.7,73V371.1m0,73H678.3M110.4,370.3V297.7M678,370.3V297.7m-567.6,146V371.1M678,443.7V371.1m0,155.1V444.4M110,228.6h75.6M110.4,297V228.9m75.2,-.3H357.5m0,0H460.6m0,0H678.3M678,297V228.9M110,297.3h75.6m0,0H357.5m0,0H460.6m0,0H678.3M110,444.1h75.6m-75.2,82.1V444.4m75.2,-.3H357.5m0,0H460.6m0,82.1V444.4M110,526.6h75.6M110.4,566V527m75.2,-.4H357.5m0,0H460.6m0,0H678.3M678,566V527M110,566.3h75.6m0,0H357.5m0,0H460.6m0,0H678.3" class="g2_281"/>
<path d="M110.4,822.6h75.2v68.7H110.4V822.6Zm75.2,0H355.7v68.7H185.6V822.6Zm170.1,0h93.5v68.7H355.7V822.6Zm93.5,0H676.1v68.7H449.2V822.6Z" class="g1_281"/>
<path d="M185.6,891V822.9M355.7,891V822.9M449.2,891V822.9M185.6,919V891.7M355.7,919V891.7M449.2,919V891.7M110,919.4h75.6m0,0H355.7M185.6,944.7V919.8m170.1,-.4h93.5m-93.5,25.3V919.8m93.5,-.4H676.5M449.2,944.7V919.8m0,25.3H676.5M110.4,919V891.7M676.1,919V891.7m-565.7,53V919.8m565.7,24.9V919.8m0,90.6v-65M110,945.1h75.6m-75.2,65.3v-65m75.2,-.3H355.7m0,0h93.5m0,65.3v-65M110,1010.8h75.6m-75.2,22.6v-22.2m75.2,-.4H355.7m0,0h93.5m0,0H676.5m-.4,22.6v-22.2M110,1033.7h75.6m0,0H355.7m0,0h93.5m0,0H676.5M110,822.6h75.6M110.4,891V822.9m75.2,-.3H355.7m0,0h93.5m0,0H676.5m-.4,68.4V822.9M110,891.3h75.6m0,0H355.7m0,0h93.5m0,0H676.5" class="g2_281"/>
</svg>