<?xml version="1.0" encoding="UTF-8" standalone="no"?>
<!DOCTYPE svg PUBLIC "-//W3C//DTD SVG 1.1//EN"
"http://www.w3.org/Graphics/SVG/1.1/DTD/svg11.dtd">
<svg viewBox="0 0 935 1182" version="1.1" xmlns="http://www.w3.org/2000/svg" xmlns:xlink="http://www.w3.org/1999/xlink">
<defs>
<style type="text/css"><![CDATA[
.g0_255{
fill: none;
stroke: #231F20;
stroke-width: 1.145;
stroke-miterlimit: 10;
}
.g1_255{
fill: none;
stroke: #231F20;
stroke-width: 1.527;
stroke-linecap: round;
stroke-linejoin: round;
stroke-dasharray: 0,4;
}
.g2_255{
fill: none;
stroke: #231F20;
stroke-width: 1.527;
stroke-linecap: round;
stroke-linejoin: round;
}
.g3_255{
fill: #E7E8E8;
}
.g4_255{
fill: none;
stroke: #231F20;
stroke-width: 0.763;
stroke-miterlimit: 10;
}
]]></style>
</defs>
<path d="M148.2,68.7H678.3M148.2,94.3H678.3" class="g0_255"/>
<path d="M150.5,287.1H639.4" class="g1_255"/>
<path d="M147.4,287.1v0m493.5,0v0" class="g2_255"/>
<path d="M149,530.8H639.4" class="g1_255"/>
<path d="M145.9,530.8v0m495,0v0" class="g2_255"/>
<path d="M187.9,549.3H678.3M187.9,573.4H678.3" class="g0_255"/>
<path d="M150.5,692H639.4" class="g1_255"/>
<path d="M147.4,692v0m493.5,0v0" class="g2_255"/>
<path d="M149,828.7H639.4" class="g1_255"/>
<path d="M145.9,828.7v0m495,0v0" class="g2_255"/>
<path d="M148.2,851.8H678.3M148.2,877.4H678.3M148.2,971H678.3M148.2,996.6H678.3" class="g0_255"/>
<path d="M170.9,199.5H617.5v26H170.9v-26Z" class="g3_255"/>
<path d="M170.5,199.5H617.8M170.9,225.2V199.9m446.6,25.3V199.9m-447,25.6H617.8" class="g4_255"/>
<path d="M132.2,241.6h524v26h-524v-26Z" class="g3_255"/>
<path d="M131.8,241.6H656.6M132.2,267.2V242m524,25.2V242M131.8,267.6H656.6" class="g4_255"/>
<path d="M182.9,385.2H605.5v26H182.9v-26Z" class="g3_255"/>
<path d="M182.5,385.2H605.9m-423,25.7V385.6m422.6,25.3V385.6m-423,25.6H605.9" class="g4_255"/>
<path d="M162.8,623.6H625.5v26H162.8v-26Z" class="g3_255"/>
<path d="M162.4,623.6H625.9M162.8,649.2V624m462.7,25.2V624M162.4,649.6H625.9" class="g4_255"/>
</svg>