<?xml version="1.0" encoding="UTF-8" standalone="no"?>
<!DOCTYPE svg PUBLIC "-//W3C//DTD SVG 1.1//EN"
"http://www.w3.org/Graphics/SVG/1.1/DTD/svg11.dtd">
<svg viewBox="0 0 935 1182" version="1.1" xmlns="http://www.w3.org/2000/svg" xmlns:xlink="http://www.w3.org/1999/xlink">
<defs>
<style type="text/css"><![CDATA[
.g0_127{
fill: none;
stroke: #231F20;
stroke-width: 1.145;
stroke-miterlimit: 10;
}
.g1_127{
fill: none;
stroke: #231F20;
stroke-width: 1.527;
stroke-linecap: round;
stroke-linejoin: round;
stroke-dasharray: 0,4;
}
.g2_127{
fill: none;
stroke: #231F20;
stroke-width: 1.527;
stroke-linecap: round;
stroke-linejoin: round;
}
.g3_127{
fill: #E7E8E8;
}
.g4_127{
fill: none;
stroke: #231F20;
stroke-width: 0.763;
stroke-miterlimit: 10;
}
]]></style>
</defs>
<path d="M187.9,69.7H678.3m-490.4,24H678.3M148.2,377.6H678.3M148.2,403.2H678.3" class="g0_127"/>
<path d="M150.5,421.7H639.4" class="g1_127"/>
<path d="M147.4,421.7v0m493.5,0v0" class="g2_127"/>
<path d="M149,520.3H639.4" class="g1_127"/>
<path d="M145.9,520.3v0m495,0v0" class="g2_127"/>
<path d="M150.5,657.8H639.4" class="g1_127"/>
<path d="M147.4,657.8v0m493.5,0v0" class="g2_127"/>
<path d="M149,775.4H639.4" class="g1_127"/>
<path d="M145.9,775.4v0m495,0v0" class="g2_127"/>
<path d="M150.5,986.3H639.4" class="g1_127"/>
<path d="M147.4,986.3v0m493.5,0v0" class="g2_127"/>
<path d="M149,1084.8H639.4" class="g1_127"/>
<path d="M145.9,1084.8v0m495,0v0" class="g2_127"/>
<path d="M247.4,186.7H395.6v26H247.4v-26Zm148.2,0H541v26H395.6v-26Z" class="g3_127"/>
<path d="M395.6,212.3V187.1M247.4,235.3V213.1m148.2,22.2V213.1M541,235.3V213.1M247,235.7H395.6M247.4,258.2V236.1m148.2,-.4H541.4M395.6,258.2V236.1M541,258.2V236.1M247,258.6H395.6M247.4,281.2V259m148.2,-.4H541.4M395.6,281.2V259M541,281.2V259M247,281.6H395.6m0,0H541.4M247,186.7H395.6M247.4,212.3V187.1m148.2,-.4H541.4m-.4,25.6V187.1M247,212.7H395.6m0,0H541.4" class="g4_127"/>
</svg>