<?xml version="1.0" encoding="UTF-8" standalone="no"?>
<!DOCTYPE svg PUBLIC "-//W3C//DTD SVG 1.1//EN"
"http://www.w3.org/Graphics/SVG/1.1/DTD/svg11.dtd">
<svg viewBox="0 0 935 1182" version="1.1" xmlns="http://www.w3.org/2000/svg" xmlns:xlink="http://www.w3.org/1999/xlink">
<defs>
<style type="text/css"><![CDATA[
.g0_114{
fill: none;
stroke: #231F20;
stroke-width: 1.145;
stroke-miterlimit: 10;
}
.g1_114{
fill: none;
stroke: #231F20;
stroke-width: 1.527;
stroke-linecap: round;
stroke-linejoin: round;
stroke-dasharray: 0,4;
}
.g2_114{
fill: none;
stroke: #231F20;
stroke-width: 1.527;
stroke-linecap: round;
stroke-linejoin: round;
}
.g3_114{
fill: #F2F2F3;
}
.g4_114{
fill: #E7E8E8;
}
.g5_114{
fill: none;
stroke: #231F20;
stroke-width: 0.763;
stroke-miterlimit: 10;
}
]]></style>
</defs>
<path d="M294.9,68.7H825M294.9,94.3H825" class="g0_114"/>
<path d="M297.2,195.8H786" class="g1_114"/>
<path d="M294.1,195.8v0m493.5,0v0" class="g2_114"/>
<path d="M295.6,366H786" class="g1_114"/>
<path d="M292.6,366v0m495,0v0" class="g2_114"/>
<path d="M294.9,391.5H825M294.9,417H825M294.9,544H825M294.9,569.6H825M294.9,696.5H825M294.9,722.1H825" class="g0_114"/>
<path d="M275,802.6H806.7V738.8H275v63.8Z" class="g3_114"/>
<path d="M257,819.9H520.7v26H257v-26Zm263.7,0H824.6v26H520.7v-26Z" class="g4_114"/>
<path d="M520.7,845.5V820.2M257,868.4V846.2m263.7,22.2V846.2m303.9,22.2V846.2M256.7,868.8h264M257,891.4V869.2m263.7,-.4H825M520.7,891.4V869.2m303.9,22.2V869.2M256.7,891.7h264M257,931.1v-39m263.7,-.4H825M520.7,931.1v-39m303.9,39v-39M256.7,931.5h264M257,970.9v-39m263.7,-.4H825M520.7,970.9v-39m303.9,39v-39M256.7,971.3h264M257,993.8V971.6m263.7,-.3H825M520.7,993.8V971.6m303.9,22.2V971.6M256.7,994.2h264m0,0H825M256.7,819.9h264M257,845.5V820.2m263.7,-.3H825m-.4,25.6V820.2M256.7,845.9h264m0,0H825" class="g5_114"/>
</svg>