<?xml version="1.0" encoding="UTF-8" standalone="no"?>
<!DOCTYPE svg PUBLIC "-//W3C//DTD SVG 1.1//EN"
"http://www.w3.org/Graphics/SVG/1.1/DTD/svg11.dtd">
<svg viewBox="0 0 935 1182" version="1.1" xmlns="http://www.w3.org/2000/svg" xmlns:xlink="http://www.w3.org/1999/xlink">
<defs>
<style type="text/css"><![CDATA[
.g0_282{
fill: #F2F2F3;
}
.g1_282{
fill: none;
stroke: #231F20;
stroke-width: 1.527;
stroke-linecap: round;
stroke-linejoin: round;
stroke-dasharray: 0,4;
}
.g2_282{
fill: none;
stroke: #231F20;
stroke-width: 1.527;
stroke-linecap: round;
stroke-linejoin: round;
}
.g3_282{
fill: #E7E8E8;
}
.g4_282{
fill: none;
stroke: #231F20;
stroke-width: 0.763;
stroke-miterlimit: 10;
}
]]></style>
</defs>
<path d="M275,125.5H806.7V62.6H275v62.9Z" class="g0_282"/>
<path d="M297.2,146.9H786" class="g1_282"/>
<path d="M294.1,146.9v0m493.5,0v0" class="g2_282"/>
<path d="M295.6,489.3H786" class="g1_282"/>
<path d="M292.6,489.3v0m495,0v0" class="g2_282"/>
<path d="M297.2,709.3H786" class="g1_282"/>
<path d="M294.1,709.3v0m493.5,0v0" class="g2_282"/>
<path d="M295.6,1122.5H786" class="g1_282"/>
<path d="M292.6,1122.5v0m495,0v0" class="g2_282"/>
<path d="M257,220.6h61.5v42.9H257V220.6Zm61.5,0H442.3v42.9H318.5V220.6Zm123.8,0h75.6v42.9H442.3V220.6Zm75.6,0H733.3v42.9H517.9V220.6Zm215.4,0h91.3v42.9H733.3V220.6Z" class="g3_282"/>
<path d="M318.5,263.1V221m123.8,42.1V221m75.6,42.1V221m215.4,42.1V221M318.5,319.6V263.8m123.8,55.8V263.8m75.6,55.8V263.8m215.4,55.8V263.8M256.7,320h61.8m0,0H442.3M318.5,376.2V320.4M442.3,320h75.6m-75.6,56.2V320.4m75.6,-.4H733.3M517.9,376.2V320.4M733.3,320H825m-91.7,56.2V320.4m0,56.2H825m-91.7,39.7H825M257,319.6V263.8m567.6,55.8V263.8M257,376.2V320.4m567.6,55.8V320.4m0,95.5v-39M257,455.7v-39m567.6,39v-39M256.7,456.1h61.8m0,0H442.3m0,0h75.6m0,0H733.3m0,0H825M256.7,220.6h61.8M257,263.1V221m61.5,-.4H442.3m0,0h75.6m0,0H733.3m0,0H825m-.4,42.5V221M256.7,263.4h61.8m0,0H442.3m0,0h75.6m0,0H733.3m0,0H825M256.7,376.6h61.8M257,415.9v-39m61.5,-.3H442.3m0,0h75.6m0,0H733.3m0,39.3v-39M256.7,416.3h61.8m0,0H442.3m0,0h75.6m0,0H733.3" class="g4_282"/>
<path d="M257,802.1h75.3v68.8H257V802.1Zm75.3,0H473v68.8H332.3V802.1Zm140.7,0H576.1v68.8H473V802.1Zm103.1,0H824.6v68.8H576.1V802.1Z" class="g3_282"/>
<path d="M332.3,870.5v-68m140.7,68v-68m103.1,68v-68M332.3,936.3v-65m140.7,65v-65m103.1,65v-65M256.7,936.6h75.6m0,0H473M332.3,1002V937M473,936.6H576.1M473,1002V937m103.1,-.4H825M576.1,1002V937m-319.4,65.4h75.6m0,0H473m-140.7,29.9v-29.6m140.7,-.3H576.1m0,0H825m-248.9,29.9v-29.6m-319.4,30h75.6m0,0H473m-140.7,56.1v-55.7m140.7,-.4H576.1m0,0H825M257,936.3v-65m567.6,65v-65M257,1002V937m567.6,65V937M257,1032.3v-29.6m567.6,29.6v-29.6M257,1088.8v-55.7m567.6,55.7v-55.7m-567.9,56.1h75.6m0,0H473m0,0H576.1m0,0H825M256.7,802.1h75.6M257,870.5v-68m75.3,-.4H473m0,0H576.1m0,0H825m-.4,68.4v-68M256.7,870.9h75.6m0,0H473m0,0H576.1m0,0H825" class="g4_282"/>
</svg>