<?xml version="1.0" encoding="UTF-8" standalone="no"?>
<!DOCTYPE svg PUBLIC "-//W3C//DTD SVG 1.1//EN"
"http://www.w3.org/Graphics/SVG/1.1/DTD/svg11.dtd">
<svg viewBox="0 0 935 1182" version="1.1" xmlns="http://www.w3.org/2000/svg" xmlns:xlink="http://www.w3.org/1999/xlink">
<defs>
<style type="text/css"><![CDATA[
.g0_139{
fill: none;
stroke: #231F20;
stroke-width: 1.527;
stroke-linecap: round;
stroke-linejoin: round;
stroke-dasharray: 0,4;
}
.g1_139{
fill: none;
stroke: #231F20;
stroke-width: 1.527;
stroke-linecap: round;
stroke-linejoin: round;
}
.g2_139{
fill: none;
stroke: #231F20;
stroke-width: 1.145;
stroke-miterlimit: 10;
}
.g3_139{
fill: #E7E8E8;
}
.g4_139{
fill: #DCDDDE;
}
.g5_139{
fill: none;
stroke: #231F20;
stroke-width: 0.763;
stroke-miterlimit: 10;
}
.g6_139{
fill: none;
stroke: #231F20;
stroke-width: 3.055;
stroke-miterlimit: 10;
}
]]></style>
</defs>
<path d="M150.5,269.7H639.4" class="g0_139"/>
<path d="M147.4,269.7v0m493.5,0v0" class="g1_139"/>
<path d="M149,425.6H639.4" class="g0_139"/>
<path d="M145.9,425.6v0m495,0v0" class="g1_139"/>
<path d="M148.2,448.7H678.3M148.2,474.3H678.3" class="g2_139"/>
<path d="M193.6,524.5h73.5v42.8H193.6V524.5Zm73.5,0h55v42.8h-55V524.5Zm55,0h72.1v42.8H322.1V524.5Zm72.1,0h72v42.8h-72V524.5Zm72,0h55.1v42.8H466.2V524.5Zm55.1,0h73.5v42.8H521.3V524.5Z" class="g3_139"/>
<path d="M193.6,567.3h73.5v22.9H193.6V567.3Zm73.5,0h55v22.9h-55V567.3Zm55,0h72.1v22.9H322.1V567.3Zm72.1,0h72v22.9h-72V567.3Zm72,0h55.1v22.9H466.2V567.3Zm55.1,0h73.5v22.9H521.3V567.3ZM193.6,590.2h73.5v23H193.6v-23Zm73.5,0h55v23h-55v-23Zm55,0h72.1v23H322.1v-23Zm72.1,0h72v23h-72v-23Zm72,0h55.1v23H466.2v-23Zm55.1,0h73.5v23H521.3v-23Zm-327.7,23h73.5v22.9H193.6V613.2Zm73.5,0h55v22.9h-55V613.2Zm55,0h72.1v22.9H322.1V613.2Zm72.1,45.9h72V682h-72V659.1Zm72,0h55.1V682H466.2V659.1Zm55.1,0h73.5V682H521.3V659.1ZM193.6,682h73.5v23H193.6V682Zm73.5,0h55v23h-55V682Zm55,0h72.1v23H322.1V682Zm72.1,0h72v23h-72V682Zm72,0h55.1v23H466.2V682Zm55.1,0h73.5v23H521.3V682ZM193.6,705h73.5v22.9H193.6V705Zm73.5,0h55v22.9h-55V705Zm55,0h72.1v22.9H322.1V705Z" class="g4_139"/>
<path d="M267.1,566.9v-42m55,42v-42m144.1,42v-42m55.1,42v-42m-327.7,65V567.7m73.5,22.2V567.7m55,22.2V567.7m144.1,22.2V567.7m55.1,22.2V567.7m73.5,22.2V567.7M193.2,590.2h73.9m-73.5,22.6V590.6m73.5,-.4h55m-55,22.6V590.6m55,-.4h70.5m-70.5,22.6V590.6m73.6,-.4h70.5m0,0h55.1m-55.1,22.6V590.6m55.1,-.4h73.8m-73.8,22.6V590.6m73.5,22.2V590.6M193.2,613.2h73.9m-73.5,22.6V613.6m73.5,-.4h55m-55,22.6V613.6m55,-.4h70.5m-70.5,22.6V613.6m73.6,-.4h70.5m0,0h55.1m-55.1,22.6V613.6m55.1,-.4h73.8m-73.8,22.6V613.6m73.5,22.2V613.6M193.2,636.1h73.9m-73.5,22.6V636.5m73.5,-.4h55m-55,22.6V636.5m55,-.4h70.5m-70.5,22.6V636.5m73.6,-.4h70.5m0,0h55.1m-55.1,22.6V636.5m55.1,-.4h73.8m-73.8,22.6V636.5m73.5,22.2V636.5M193.2,659.1h73.9m-73.5,22.5V659.5m73.5,-.4h55m-55,22.5V659.5m55,-.4h70.5m-70.5,22.5V659.5m73.6,-.4h70.5m0,0h55.1m-55.1,22.5V659.5m55.1,-.4h73.8m-73.8,22.5V659.5m73.5,22.1V659.5M193.2,682h73.9m-73.5,22.6V682.4m73.5,-.4h55m-55,22.6V682.4m55,-.4h70.5m-70.5,22.6V682.4m73.6,-.4h70.5m0,0h55.1m-55.1,22.6V682.4m55.1,-.4h73.8m-73.8,22.6V682.4m73.5,22.2V682.4M193.2,705h73.9m-73.5,22.5V705.4m73.5,-.4h55m-55,22.5V705.4m55,-.4h70.5m-70.5,22.5V705.4m73.6,-.4h70.5m0,0h55.1m-55.1,22.5V705.4m55.1,-.4h73.8m-73.8,22.5V705.4m73.5,22.1V705.4M193.2,727.9h73.9m0,0h55m0,0h72.1m0,0h72m0,0h55.1m0,0h73.8" class="g5_139"/>
<path d="M394.2,566.9v-42m0,65.3V567.7m0,45.5v-23m0,45.9V613.2m0,45.9v-23m0,45.9V659.1m0,45.9V682m0,45.5V705" class="g6_139"/>
<path d="M193.2,524.5h73.9m-73.5,42.4v-42m73.5,-.4h55m0,0h72.1m0,0h72m0,0h55.1m0,0h73.8m-.3,42.4v-42M193.2,567.3h73.9m0,0h55m0,0h72.1m0,0h72m0,0h55.1m0,0h73.8" class="g5_139"/>
</svg>