<?xml version="1.0" encoding="UTF-8" standalone="no"?>
<!DOCTYPE svg PUBLIC "-//W3C//DTD SVG 1.1//EN"
"http://www.w3.org/Graphics/SVG/1.1/DTD/svg11.dtd">
<svg viewBox="0 0 935 1182" version="1.1" xmlns="http://www.w3.org/2000/svg" xmlns:xlink="http://www.w3.org/1999/xlink">
<defs>
<style type="text/css"><![CDATA[
.g0_35{
fill: #F2F2F3;
}
.g1_35{
fill: #E7E8E8;
}
.g2_35{
fill: none;
stroke: #231F20;
stroke-width: 0.763;
stroke-miterlimit: 10;
}
.g3_35{
fill: none;
stroke: #231F20;
stroke-width: 3.055;
stroke-miterlimit: 10;
}
]]></style>
</defs>
<path d="M128.3,519.2H660V480.3H128.3v38.9Z" class="g0_35"/>
<path d="M128.3,601.7H660V515.4H128.3v86.3Z" class="g0_35"/>
<path d="M128.3,719.2H660V588.7H128.3V719.2Z" class="g0_35"/>
<path d="M233.2,209.8h68.4v26H233.2v-26Zm68.4,0h51.3v26H301.6v-26Zm51.3,0h44.9v26H352.9v-26Zm44.9,0h55v26h-55v-26Zm55,0h43.1v26H452.8v-26Zm43.1,0h59.2v26H495.9v-26Z" class="g1_35"/>
<path d="M301.6,235.4V210.1m51.3,25.3V210.1m99.9,25.3V210.1m43.1,25.3V210.1M301.6,258.3V236.1m51.3,22.2V236.1m99.9,22.2V236.1m43.1,22.2V236.1M232.8,258.7h68.8m0,0h51.3m-51.3,22.6V259.1m51.3,-.4h43.4m-43.4,22.6V259.1m46.5,-.4h53.4m0,0h43.1m-43.1,22.6V259.1m43.1,-.4h59.6m-59.6,22.6V259.1M232.8,281.7h68.8m0,0h51.3m-51.3,22.5V282m51.3,-.3h43.4m-43.4,22.5V282m46.5,-.3h53.4m0,0h43.1m-43.1,22.5V282m43.1,-.3h59.6m-59.6,22.5V282M233.2,258.3V236.1m321.9,22.2V236.1M233.2,281.3V259.1m321.9,22.2V259.1M233.2,304.2V282m321.9,22.2V282M232.8,304.6h68.8m0,0h51.3m0,0h44.9m0,0h55m0,0h43.1m0,0h59.6M232.8,209.8h68.8m-68.4,25.6V210.1m68.4,-.3h51.3m0,0h44.9m0,0h55m0,0h43.1m0,0h59.6m-.4,25.6V210.1M232.8,235.8h68.8m0,0h51.3m0,0h43.4m3.1,0h53.4m0,0h43.1m0,0h59.6" class="g2_35"/>
<path d="M397.8,235.8V210.1m0,48.6V235.8m0,45.9v-23m0,45.5V281.7" class="g3_35"/>
<path d="M110.4,854.9H217.6v26H110.4v-26Zm107.2,0h60.1v26H217.6v-26Zm60.2,0h46.7v26H277.8v-26Zm46.7,0h47.7v26H324.5v-26Zm47.7,0h49.5v26H372.2v-26Zm49.5,0H462v26H421.7v-26Zm40.3,0h60.5v26H462v-26Zm60.5,0H678v26H522.5v-26Z" class="g1_35"/>
<path d="M217.6,880.5V855.3m60.2,25.2V855.3m46.7,25.2V855.3m97.2,25.2V855.3M462,880.5V855.3m60.5,25.2V855.3M110.4,953.9V881.3m107.2,72.6V881.3m60.2,72.6V881.3m46.7,72.6V881.3m97.2,72.6V881.3M462,953.9V881.3m60.5,72.6V881.3M678,953.9V881.3m-568,73H217.6m-107.2,73V954.7m107.2,-.4h60.1m-60.1,73V954.7m60.2,-.4h46.7m-46.7,73V954.7m46.7,-.4h46.1m-46.1,73V954.7m49.2,-.4h48m0,0H462m-40.3,73V954.7m40.3,-.4h60.5m-60.5,73V954.7m60.5,-.4H678.3m-155.8,73V954.7M678,1027.3V954.7m-568,73H217.6m-107.2,22.5V1028m107.2,-.3h60.1m-60.1,22.5V1028m60.2,-.3h46.7m-46.7,22.5V1028m46.7,-.3h46.1m-46.1,22.5V1028m49.2,-.3h48m0,0H462m-40.3,22.5V1028m40.3,-.3h60.5M462,1050.2V1028m60.5,-.3H678.3m-155.8,22.5V1028M678,1050.2V1028m-568,22.6H217.6m-107.2,22.6V1051m107.2,-.4h60.1m-60.1,22.6V1051m60.2,-.4h46.7m-46.7,22.6V1051m46.7,-.4h46.1m-46.1,22.6V1051m49.2,-.4h48m0,0H462m-40.3,22.6V1051m40.3,-.4h60.5M462,1073.2V1051m60.5,-.4H678.3m-155.8,22.6V1051M678,1073.2V1051m-568,22.6H217.6m0,0h60.1m.1,0h46.7m0,0h47.7m0,0h49.5m0,0H462m0,0h60.5m0,0H678.3" class="g2_35"/>
<path d="M372.2,880.5V855.3m0,99v-73m0,146.4V954.3m0,96.3v-22.9m0,45.5v-22.6" class="g3_35"/>
<path d="M110,854.9H217.6M110.4,880.5V855.3m107.2,-.4h60.1m.1,0h46.7m0,0h47.7m0,0h49.5m0,0H462m0,0h60.5m0,0H678.3m-.3,25.6V855.3M110,880.9H217.6m0,0h60.1m.1,0h46.7m0,0h47.7m0,0h49.5m0,0H462m0,0h60.5m0,0H678.3" class="g2_35"/>
</svg>