<?xml version="1.0" encoding="UTF-8" standalone="no"?>
<!DOCTYPE svg PUBLIC "-//W3C//DTD SVG 1.1//EN"
"http://www.w3.org/Graphics/SVG/1.1/DTD/svg11.dtd">
<svg viewBox="0 0 935 1182" version="1.1" xmlns="http://www.w3.org/2000/svg" xmlns:xlink="http://www.w3.org/1999/xlink">
<defs>
<style type="text/css"><![CDATA[
.g0_140{
fill: none;
stroke: #231F20;
stroke-width: 1.145;
stroke-miterlimit: 10;
}
.g1_140{
fill: none;
stroke: #231F20;
stroke-width: 1.527;
stroke-linecap: round;
stroke-linejoin: round;
stroke-dasharray: 0,4;
}
.g2_140{
fill: none;
stroke: #231F20;
stroke-width: 1.527;
stroke-linecap: round;
stroke-linejoin: round;
}
.g3_140{
fill: #E7E8E8;
}
.g4_140{
fill: #DCDDDE;
}
.g5_140{
fill: none;
stroke: #231F20;
stroke-width: 0.763;
stroke-miterlimit: 10;
}
.g6_140{
fill: none;
stroke: #231F20;
stroke-width: 3.055;
stroke-miterlimit: 10;
}
]]></style>
</defs>
<path d="M256.7,351.4H825" class="g0_140"/>
<path d="M297.2,651.1H786" class="g1_140"/>
<path d="M294.1,651.1v0m493.5,0v0" class="g2_140"/>
<path d="M295.6,787.8H786" class="g1_140"/>
<path d="M292.6,787.8v0m495,0v0" class="g2_140"/>
<path d="M297.2,860.7H786" class="g1_140"/>
<path d="M294.1,860.7v0m493.5,0v0" class="g2_140"/>
<path d="M295.6,995.1H786" class="g1_140"/>
<path d="M292.6,995.1v0m495,0v0" class="g2_140"/>
<path d="M339.7,73.7h73.4v42.8H339.7V73.7Zm73.4,0h55.1v42.8H413.1V73.7Zm55.1,0h72.1v42.8H468.2V73.7Zm72.1,0h72v42.8h-72V73.7Zm72,0h55.1v42.8H612.3V73.7Zm55.1,0h73.5v42.8H667.4V73.7Z" class="g3_140"/>
<path d="M339.7,116.5h73.4v23H339.7v-23Zm73.4,0h55.1v23H413.1v-23Zm55.1,0h72.1v23H468.2v-23Zm72.1,0h72v23h-72v-23Zm72,0h55.1v23H612.3v-23Zm55.1,0h73.5v23H667.4v-23Zm-327.7,23h73.4v22.9H339.7V139.5Zm73.4,0h55.1v22.9H413.1V139.5Zm55.1,0h72.1v22.9H468.2V139.5Zm72.1,0h72v22.9h-72V139.5Zm72,0h55.1v22.9H612.3V139.5Zm55.1,0h73.5v22.9H667.4V139.5ZM339.7,162.4h73.4v23H339.7v-23Zm73.4,0h55.1v23H413.1v-23Zm55.1,0h72.1v23H468.2v-23Zm72.1,45.9h72v23h-72v-23Zm72,0h55.1v23H612.3v-23Zm55.1,0h73.5v23H667.4v-23Zm-327.7,23h73.4v22.9H339.7V231.3Zm73.4,0h55.1v22.9H413.1V231.3Zm55.1,0h72.1v22.9H468.2V231.3Zm72.1,0h72v22.9h-72V231.3Zm72,0h55.1v22.9H612.3V231.3Zm55.1,0h73.5v22.9H667.4V231.3ZM339.7,254.2h73.4v23H339.7v-23Zm73.4,0h55.1v23H413.1v-23Zm55.1,0h72.1v23H468.2v-23Z" class="g4_140"/>
<path d="M413.1,116.1v-42m55.1,42v-42M612.3,115V74.1M667.4,115V74.1m-327.7,65V116.9m73.4,22.2V116.9m55.1,22.2V116.9m144.1,21V118.1m55.1,19.8V118.1M339.3,139.5h73.8M339.7,162V139.9m73.4,-.4h55.1M413.1,162V139.9m55.1,-.4h70.5M468.2,162V139.9M612.3,162V141m55.1,21V141m73.5,21V141M339.3,162.4h73.8M339.7,185V162.8m73.4,-.4h55.1M413.1,185V162.8m55.1,-.4h70.5M468.2,185V162.8m73.6,-.4h70.5m0,0h55.1M612.3,185V162.8m55.1,-.4h73.8M667.4,185V162.8M740.9,185V162.8M339.3,185.4h73.8m-73.4,22.5V185.7m73.4,-.3h55.1m-55.1,22.5V185.7m55.1,-.3h70.5m-70.5,22.5V185.7m73.6,-.3h70.5m0,0h55.1m-55.1,22.5V185.7m55.1,-.3h73.8m-73.8,22.5V185.7m73.5,22.2V185.7M339.3,208.3h73.8m-73.4,22.6V208.7m73.4,-.4h55.1m-55.1,22.6V208.7m55.1,-.4h70.5m-70.5,22.6V208.7m73.6,-.4h70.5m0,0h55.1m-55.1,22.6V208.7m55.1,-.4h73.8m-73.8,22.6V208.7m73.5,22.2V208.7M339.3,231.3h73.8m-73.4,22.5V231.6m73.4,-.3h55.1m-55.1,22.5V231.6m55.1,-.3h70.5m-70.5,22.5V231.6m73.6,-.3h70.5m0,0h55.1m-55.1,22.5V231.6m55.1,-.3h73.8m-73.8,22.5V231.6m73.5,22.2V231.6M339.3,254.2h73.8m-73.4,22.6V254.6m73.4,-.4h55.1m-55.1,22.6V254.6m55.1,-.4h70.5m-70.5,22.6V254.6m73.6,-.4h70.5m0,0h55.1m-55.1,22.6V254.6m55.1,-.4h73.8m-73.8,22.6V254.6m73.5,22.2V254.6M339.3,277.2h73.8m0,0h55.1m0,0h72.1m0,0h72m0,0h55.1m0,0h73.8" class="g5_140"/>
<path d="M540.3,115V74.1m0,88.3V141m0,44.4v-23m0,45.9V185.4m0,45.9v-23m0,45.9V231.3m0,45.5V254.2m0,-116.3V118.1m200.6,19.8V118.1M538.7,139.5h73.6m0,0h55.1m0,0h75" class="g6_140"/>
<path d="M339.3,73.7h73.8m-73.4,42.4v-42m73.4,-.4h55.1m0,0h72.1m0,0h72m0,0h55.1m0,0h73.8m-.3,41.3V74.1M339.3,116.5h73.8m0,0h55.1m0,0h70.5" class="g5_140"/>
<path d="M538.7,116.5h73.6m0,0h55.1m0,0h75" class="g6_140"/>
</svg>