<?xml version="1.0" encoding="UTF-8" standalone="no"?>
<!DOCTYPE svg PUBLIC "-//W3C//DTD SVG 1.1//EN"
"http://www.w3.org/Graphics/SVG/1.1/DTD/svg11.dtd">
<svg viewBox="0 0 935 1182" version="1.1" xmlns="http://www.w3.org/2000/svg" xmlns:xlink="http://www.w3.org/1999/xlink">
<defs>
<style type="text/css"><![CDATA[
.g0_215{
fill: #F2F2F3;
}
.g1_215{
fill: none;
stroke: #231F20;
stroke-width: 1.145;
stroke-miterlimit: 10;
}
.g2_215{
fill: #E7E8E8;
}
.g3_215{
fill: none;
stroke: #231F20;
stroke-width: 0.763;
stroke-miterlimit: 10;
}
]]></style>
</defs>
<path d="M128.3,147.9H660V62.6H128.3v85.3Z" class="g0_215"/>
<path d="M148.2,171.1H678.3M148.2,196.7H678.3" class="g1_215"/>
<path d="M110.4,457.8h78.4v71.8H110.4V457.8Zm78.4,0H264v71.8H188.8V457.8Zm75.2,0h77v71.8H264V457.8Zm77,0h78.8v71.8H341V457.8Zm78.8,0H542.7v71.8H419.8V457.8Zm122.9,0H681.6v71.8H542.7V457.8Z" class="g2_215"/>
<path d="M188.8,529.2V458.1M264,529.2V458.1m77,71.1V458.1m78.8,71.1V458.1m122.9,71.1V458.1M110.4,729.4V530m78.4,199.4V530M264,729.4V530m77,199.4V530m78.8,199.4V530M542.7,729.4V530M681.6,729.4V530M110,729.8h78.8m-78.4,98.9V730.1m78.4,-.3H264m-75.2,98.9V730.1m75.2,-.3h77m-77,98.9V730.1m77,-.3h78.8M341,828.7V730.1m78.8,-.3H542.7M419.8,828.7V730.1m122.9,-.3H682M542.7,828.7V730.1m138.9,98.6V730.1M110,829.1h78.8M110.4,973.9V829.5m78.4,-.4H264M188.8,973.9V829.5m75.2,-.4h77M264,973.9V829.5m77,-.4h78.8M341,973.9V829.5m78.8,-.4H542.7M419.8,973.9V829.5m122.9,-.4H682M542.7,973.9V829.5M681.6,973.9V829.5M110,974.3h78.8m0,0H264m0,0h77m0,0h78.8m0,0H542.7m0,0H682M110,457.8h78.8m-78.4,71.4V458.1m78.4,-.3H264m0,0h77m0,0h78.8m0,0H542.7m0,0H682m-.4,71.4V458.1M110,529.6h78.8m0,0H264m0,0h77m0,0h78.8m0,0H542.7m0,0H682" class="g3_215"/>
</svg>