<?xml version="1.0" encoding="UTF-8" standalone="no"?>
<!DOCTYPE svg PUBLIC "-//W3C//DTD SVG 1.1//EN"
"http://www.w3.org/Graphics/SVG/1.1/DTD/svg11.dtd">
<svg viewBox="0 0 935 1182" version="1.1" xmlns="http://www.w3.org/2000/svg" xmlns:xlink="http://www.w3.org/1999/xlink">
<defs>
<style type="text/css"><![CDATA[
.g0_82{
fill: none;
stroke: #231F20;
stroke-width: 1.527;
stroke-linecap: round;
stroke-linejoin: round;
stroke-dasharray: 0,4;
}
.g1_82{
fill: none;
stroke: #231F20;
stroke-width: 1.527;
stroke-linecap: round;
stroke-linejoin: round;
}
.g2_82{
fill: #E7E8E8;
}
.g3_82{
fill: none;
stroke: #231F20;
stroke-width: 0.763;
stroke-miterlimit: 10;
}
]]></style>
</defs>
<path d="M297.2,66.4H786" class="g0_82"/>
<path d="M294.1,66.4v0m493.5,0v0" class="g1_82"/>
<path d="M295.6,575.4H786" class="g0_82"/>
<path d="M292.6,575.4v0m495,0v0" class="g1_82"/>
<path d="M292.2,163.8H399v26H292.2v-26Zm126.2,0H523.7v26H418.4v-26Zm127.4,0H649.5v26H545.8v-26Zm124.3,0H770.7v26H670.1v-26Z" class="g2_82"/>
<path d="M399,189.4V164.2m19.4,25.2V164.2m105.3,25.2V164.2m22.1,25.2V164.2m103.7,25.2V164.2m20.6,25.2V164.2M292.2,209.3V190.2m53.3,19.1V190.2M399,209.3V190.2m19.4,19.1V190.2M471,209.3V190.2m52.7,19.1V190.2m22.1,19.1V190.2m51.8,19.1V190.2m51.9,19.1V190.2m20.6,19.1V190.2m50.2,19.1V190.2m50.4,19.1V190.2M291.8,209.7h53.7m-53.3,19.5V210.1m53.3,-.4h53.9m-53.9,19.5V210.1M399,229.2V210.1m19,-.4h53m-52.6,19.5V210.1m52.6,-.4h53.1M471,229.2V210.1m52.7,19.1V210.1m21.8,-.4h52.1m-51.8,19.5V210.1m51.8,-.4h52.3m-52.3,19.5V210.1m51.9,19.1V210.1m20.2,-.4h50.6m-50.2,19.5V210.1m50.2,-.4h50.8m-50.8,19.5V210.1m50.4,19.1V210.1M291.8,229.6h53.7m-53.3,19.5V230m53.3,-.4h53.9m-53.9,19.5V230M399,249.1V230m19,-.4h53m-52.6,19.5V230m52.6,-.4h53.1M471,249.1V230m52.7,19.1V230m21.8,-.4h52.1m-51.8,19.5V230m51.8,-.4h52.3m-52.3,19.5V230m51.9,19.1V230m20.2,-.4h50.6m-50.2,19.5V230m50.2,-.4h50.8m-50.8,19.5V230m50.4,19.1V230M291.8,249.5h53.7M292.2,269V249.9m53.3,-.4h53.9M345.5,269V249.9M399,269V249.9m19,-.4h53M418.4,269V249.9m52.6,-.4h53.1M471,269V249.9M523.7,269V249.9m21.8,-.4h52.1M545.8,269V249.9m51.8,-.4h52.3M597.6,269V249.9M649.5,269V249.9m20.2,-.4h50.6M670.1,269V249.9m50.2,-.4h50.8M720.3,269V249.9M770.7,269V249.9M291.8,269.4h53.7m-53.3,19.5V269.8m53.3,-.4h53.9m-53.9,19.5V269.8M399,288.9V269.8m19,-.4h53m-52.6,19.5V269.8m52.6,-.4h53.1M471,288.9V269.8m52.7,19.1V269.8m21.8,-.4h52.1m-51.8,19.5V269.8m51.8,-.4h52.3m-52.3,19.5V269.8m51.9,19.1V269.8m20.2,-.4h50.6m-50.2,19.5V269.8m50.2,-.4h50.8m-50.8,19.5V269.8m50.4,19.1V269.8M291.8,289.3h53.7m-53.3,19.5V289.7m53.3,-.4h53.9m-53.9,19.5V289.7M399,308.8V289.7m19,-.4h53m-52.6,19.5V289.7m52.6,-.4h53.1M471,308.8V289.7m52.7,19.1V289.7m21.8,-.4h52.1m-51.8,19.5V289.7m51.8,-.4h52.3m-52.3,19.5V289.7m51.9,19.1V289.7m20.2,-.4h50.6m-50.2,19.5V289.7m50.2,-.4h50.8m-50.8,19.5V289.7m50.4,19.1V289.7M291.8,309.2h53.7m0,0h53.9m18.6,0h53m0,0h53.1m21.4,0h52.1m0,0h52.3m19.8,0h50.6m0,0h50.8M291.8,163.8h53.7m-53.3,25.6V164.2m53.3,-.4h53.9m18.6,0h53m0,0h53.1m21.4,0h52.1m0,0h52.3m19.8,0h50.6m0,0h50.8m-.4,25.6V164.2M291.8,189.8h53.7m0,0h53.9m18.6,0h53m0,0h53.1m21.4,0h52.1m0,0h52.3m19.8,0h50.6m0,0h50.8" class="g3_82"/>
</svg>